<?xml version="1.0" encoding="UTF-8"?>
<!DOCTYPE svg PUBLIC "-//W3C//DTD SVG 1.1//EN" "http://www.w3.org/Graphics/SVG/1.1/DTD/svg11.dtd">
<!-- Creator: CorelDRAW -->
<svg xmlns="http://www.w3.org/2000/svg" xml:space="preserve" width="21.1666mm" height="5.0799mm" version="1.1" style="shape-rendering:geometricPrecision; text-rendering:geometricPrecision; image-rendering:optimizeQuality; fill-rule:evenodd; clip-rule:evenodd"
viewBox="0 0 2116.66 507.99"
 xmlns:xlink="http://www.w3.org/1999/xlink"
 xmlns:xodm="http://www.corel.com/coreldraw/odm/2003">
 <defs>
  <style type="text/css">
   <![CDATA[
    .str0 {stroke:#2B2A29;stroke-width:7.62;stroke-miterlimit:22.9256}
    .fil0 {fill:none}
    .fil5 {fill:none;fill-rule:nonzero}
    .fil2 {fill:#D9DADA}
    .fil3 {fill:#2B2A29;fill-rule:nonzero}
    .fil4 {fill:#2B2A29;fill-rule:nonzero}
    .fil1 {fill:#2B2A29;fill-rule:nonzero}
   ]]>
  </style>
 </defs>
 <g id="Layer_x0020_1">
  <metadata id="CorelCorpID_0Corel-Layer"/>
  <rect class="fil0" y="-0" width="2116.66" height="507.99"/>
  <g id="_1905448234464">
   <g>
    <path class="fil1" d="M1578.95 9.81c67.4,0 128.45,27.34 172.64,71.52 44.2,44.21 71.54,105.26 71.54,172.66 0,67.4 -27.34,128.45 -71.52,172.64 -44.21,44.2 -105.26,71.54 -172.66,71.54 -67.4,0 -128.45,-27.34 -172.64,-71.52 -44.2,-44.21 -71.54,-105.26 -71.54,-172.66 0,-67.4 27.34,-128.45 71.52,-172.64 44.21,-44.2 105.26,-71.54 172.66,-71.54zm165.62 78.56c-42.37,-42.38 -100.93,-68.6 -165.62,-68.6 -64.69,0 -123.25,26.22 -165.61,68.59 -42.39,42.38 -68.61,100.94 -68.61,165.63 0,64.69 26.22,123.25 68.59,165.61 42.38,42.39 100.94,68.61 165.63,68.61 64.69,0 123.25,-26.22 165.61,-68.59 42.39,-42.38 68.61,-100.94 68.61,-165.63 0,-64.69 -26.22,-123.25 -68.6,-165.62z"/>
    <g>
     <g>
      <path class="fil2" d="M1586.5 280.54c-0.07,0 -28.65,-2.29 -33.37,16.77 -2.18,8.81 3.33,24.3 13.45,39.24 6.96,10.27 16.12,20.08 26.44,27.17 9.94,6.84 21.02,11.09 32.15,10.65 10.57,-0.42 21.55,-5.16 32.17,-16.02 22.34,-22.81 53.59,-43.13 71.44,-53.86 -6.66,-2.29 -12.67,-5.17 -18.03,-8.61 -9.43,-6.04 -16.94,-13.8 -22.67,-22.99l10.95 -6.82c4.72,7.6 10.93,14.01 18.68,18.97 7.89,5.06 17.54,8.74 29.05,10.8l19.04 3.45 -17.3 8.64c-0.13,0.05 -50.28,27.1 -81.97,59.47 -13.14,13.42 -27.13,19.31 -40.85,19.86 -14.17,0.57 -27.86,-4.59 -39.95,-12.89 -11.68,-8 -21.98,-19.08 -29.8,-30.61 -12.05,-17.78 -18.37,-37.28 -15.33,-49.53 7.49,-30.26 45.81,-26.62 45.9,-26.62l0 12.93z"/>
      <path class="fil2" d="M1606.08 246.72c0,0.08 -1.43,28.47 17.87,32.57 8.89,1.89 24.2,-4.13 38.77,-14.74 10.07,-7.34 19.61,-16.82 26.31,-27.31 6.47,-10.13 10.35,-21.31 9.54,-32.48 -0.77,-10.57 -5.86,-21.39 -17.04,-31.62 -23.75,-21.75 -45.02,-52.26 -56.23,-69.58 -2.05,6.71 -4.74,12.77 -7.98,18.24 -5.71,9.63 -13.22,17.39 -22.27,23.42l-7.17 -10.69c7.45,-4.98 13.66,-11.37 18.34,-19.28 4.76,-8.04 8.13,-17.82 9.83,-29.44l2.55 -17.36 9.32 14.88c0.07,0.13 29.04,49.86 62.29,80.32 13.91,12.75 20.24,26.52 21.25,40.19 1.01,14.1 -3.7,27.98 -11.59,40.32 -7.65,11.97 -18.34,22.67 -29.57,30.81 -17.39,12.64 -36.69,19.59 -49.03,16.96 -30.37,-6.47 -28.12,-45.12 -28.12,-45.21l12.93 0z"/>
      <path class="fil2" d="M1571.84 228.05c0.07,0 28.29,0.58 31.76,-18.92 1.62,-8.95 -4.9,-24.02 -16,-38.24 -7.61,-9.78 -17.39,-19.01 -28.19,-25.4 -10.37,-6.15 -21.7,-9.68 -32.81,-8.51 -10.48,1.12 -21.13,6.57 -31,18.11 -20.82,24.33 -50.64,46.65 -67.69,58.49 6.79,1.85 12.95,4.32 18.51,7.38 9.78,5.38 17.76,12.63 24.12,21.48l-10.44 7.5c-5.18,-7.21 -11.79,-13.21 -19.9,-17.66 -8.22,-4.53 -18.11,-7.57 -29.72,-8.87l-18.38 -2.06 15.69 -9.82c0.13,-0.07 48.57,-30.46 78,-64.83 12.23,-14.3 25.81,-21.07 39.45,-22.54 14.14,-1.48 28.14,2.77 40.72,10.24 12.21,7.23 23.22,17.59 31.79,28.58 13.2,16.91 20.78,35.96 18.54,48.39 -5.42,30.52 -44.36,29.6 -44.45,29.6l0 -12.92z"/>
      <path class="fil2" d="M1553.55 261.33c0,-0.07 1.5,-28.49 -17.76,-32.62 -8.88,-1.93 -24.21,4.08 -38.8,14.64 -10.07,7.29 -19.64,16.76 -26.38,27.25 -6.5,10.12 -10.42,21.31 -9.63,32.46 0.71,10.54 5.8,21.38 16.97,31.65 23.64,21.76 44.86,52.35 56.03,69.71 2.08,-6.7 4.77,-12.76 8.03,-18.24 5.77,-9.61 13.3,-17.36 22.34,-23.36l7.1 10.76c-7.43,4.95 -13.64,11.32 -18.38,19.23 -4.78,8.02 -8.16,17.78 -9.89,29.38l-2.56 17.34 -9.3 -14.86c-0.07,-0.13 -28.89,-49.88 -62.12,-80.47 -13.82,-12.71 -20.16,-26.55 -21.11,-40.23 -0.99,-14.15 3.75,-27.97 11.68,-40.33 7.67,-11.96 18.4,-22.59 29.64,-30.72 17.41,-12.62 36.73,-19.52 49.07,-16.85 30.37,6.56 27.99,45.17 27.99,45.26l-12.92 0z"/>
     </g>
     <g>
      <path class="fil2" d="M1612.79 235.15c15.77,-24.4 46.16,-19.7 44.34,16.58 -10.52,-17.98 -25.81,-21.94 -44.34,-16.58z"/>
      <path class="fil2" d="M1595.37 288.96c23.59,16.99 17.37,47.1 -18.78,43.46 18.48,-9.61 23.21,-24.67 18.78,-43.46z"/>
      <path class="fil2" d="M1543.63 271.37c-16.51,23.89 -46.72,18.28 -43.81,-17.92 9.96,18.27 25.13,22.7 43.81,17.92z"/>
      <path class="fil2" d="M1558.21 220.41c-25.13,-14.56 -21.91,-45.15 14.41,-45.08 -17.44,11.38 -20.65,26.83 -14.41,45.08z"/>
     </g>
    </g>
    <g>
     <g>
      <path class="fil3" d="M1503.7 236.39l-21.03 -36.7 -5.36 0 0 36.7 -23.5 0 0 -97.17 40.13 0c7.7,0 14.2,1.33 19.52,3.99 5.31,2.65 9.3,6.3 11.96,10.92 2.65,4.63 3.98,9.92 3.98,15.88 0,7.05 -1.95,13.05 -5.84,18 -3.89,4.95 -9.55,8.34 -16.97,10.17l23.09 38.21 -25.98 0zm-26.39 -52.78l14.57 0c4.67,0 8.11,-1.03 10.31,-3.09 2.2,-2.06 3.3,-5.11 3.3,-9.14 0,-3.85 -1.13,-6.87 -3.37,-9.07 -2.25,-2.2 -5.66,-3.3 -10.24,-3.3l-14.57 0 0 24.6z"/>
      <polygon id="_1" class="fil3" points="1625.19,139.22 1591.52,204.09 1591.52,236.39 1567.88,236.39 1567.88,204.09 1534.21,139.22 1561.15,139.22 1579.84,178.8 1598.53,139.22 "/>
      <polygon id="_2" class="fil3" points="1704.09,139.22 1704.09,157.91 1677.7,157.91 1677.7,236.39 1654.06,236.39 1654.06,157.91 1627.95,157.91 1627.95,139.22 "/>
      <path class="fil3" d="M1532.88 264.15l-40.68 0 0 18.29c1.79,-2.04 4.28,-3.64 7.48,-4.79 3.2,-1.16 6.68,-1.73 10.43,-1.73 6.06,0 11.13,1.34 15.22,4.03 4.1,2.69 7.13,6.29 9.09,10.81 1.96,4.52 2.94,9.51 2.94,14.97 0,9.9 -2.77,17.72 -8.31,23.48 -5.55,5.76 -13.35,8.64 -23.42,8.64 -6.82,0 -12.75,-1.22 -17.78,-3.65 -5.04,-2.43 -8.92,-5.82 -11.65,-10.17 -2.73,-4.35 -4.18,-9.39 -4.35,-15.1l21.37 0c0.43,2.9 1.6,5.29 3.52,7.16 1.92,1.88 4.54,2.82 7.87,2.82 3.84,0 6.71,-1.24 8.63,-3.71 1.92,-2.47 2.88,-5.76 2.88,-9.85 0,-3.93 -1.02,-6.96 -3.07,-9.09 -2.05,-2.13 -4.9,-3.2 -8.57,-3.2 -2.82,0 -5.16,0.62 -7.04,1.86 -1.87,1.24 -3.15,2.83 -3.84,4.8l-21.24 0 0 -54.77 60.52 0 0 19.2z"/>
      <path id="_1_0" class="fil3" d="M1548.36 291.4c0,14.16 2.86,25.38 8.58,33.65 5.71,8.27 14.84,12.41 27.38,12.41 12.45,0 21.56,-4.14 27.32,-12.41 5.75,-8.27 8.63,-19.49 8.63,-33.65 0,-14.07 -2.88,-25.23 -8.63,-33.46 -5.76,-8.23 -14.87,-12.35 -27.32,-12.35 -12.54,0 -21.67,4.12 -27.38,12.35 -5.72,8.23 -8.58,19.39 -8.58,33.46zm50.16 0c0,8.1 -0.96,14.35 -2.88,18.74 -1.92,4.4 -5.69,6.59 -11.32,6.59 -5.72,0 -9.56,-2.19 -11.52,-6.59 -1.96,-4.39 -2.94,-10.64 -2.94,-18.74 0,-8.02 0.98,-14.2 2.94,-18.55 1.96,-4.35 5.8,-6.53 11.52,-6.53 5.63,0 9.4,2.16 11.32,6.46 1.92,4.31 2.88,10.52 2.88,18.62z"/>
      <path id="_2_1" class="fil3" d="M1630.76 291.4c0,14.16 2.86,25.38 8.58,33.65 5.71,8.27 14.84,12.41 27.38,12.41 12.45,0 21.56,-4.14 27.32,-12.41 5.75,-8.27 8.63,-19.49 8.63,-33.65 0,-14.07 -2.88,-25.23 -8.63,-33.46 -5.76,-8.23 -14.87,-12.35 -27.32,-12.35 -12.54,0 -21.67,4.12 -27.38,12.35 -5.72,8.23 -8.58,19.39 -8.58,33.46zm50.16 0c0,8.1 -0.96,14.35 -2.88,18.74 -1.92,4.4 -5.69,6.59 -11.32,6.59 -5.72,0 -9.56,-2.19 -11.52,-6.59 -1.96,-4.39 -2.94,-10.64 -2.94,-18.74 0,-8.02 0.98,-14.2 2.94,-18.55 1.96,-4.35 5.8,-6.53 11.52,-6.53 5.63,0 9.4,2.16 11.32,6.46 1.92,4.31 2.88,10.52 2.88,18.62z"/>
     </g>
     <g>
      <path class="fil4" d="M1524.16 413.84c-3.28,0 -5.81,-0.85 -7.59,-2.55 -1.78,-1.7 -2.67,-3.63 -2.67,-5.79 0,-2.16 0.68,-3.95 2.04,-5.37 1.36,-1.42 3.22,-2.13 5.58,-2.13 0.76,0 1.14,0.22 1.14,0.66 0,0.16 -0.24,0.48 -0.72,0.96 -0.48,0.48 -0.97,1.2 -1.47,2.16 -0.5,0.96 -0.75,2.16 -0.75,3.6 0,1.44 0.47,2.69 1.41,3.75 0.94,1.06 2.21,1.59 3.81,1.59 2.48,0 4.3,-1.02 5.46,-3.06 1.16,-2.04 1.74,-4.78 1.74,-8.22l0 -8.88c-0.92,1.76 -2.3,3.15 -4.14,4.17 -1.84,1.02 -4.02,1.53 -6.54,1.53 -2.52,0 -4.58,-0.87 -6.18,-2.61 -1.6,-1.74 -2.4,-4.19 -2.4,-7.35l0 -13.32c0,-0.88 -0.4,-1.32 -1.2,-1.32l-2.64 0 -0.54 -1.56c1.04,-1.04 2.31,-1.9 3.81,-2.58 1.5,-0.67 2.71,-1.01 3.63,-1.01 1.6,0 2.4,0.64 2.4,1.91l0 16.5c0,4.88 1.88,7.32 5.64,7.32 2.68,0 4.77,-1.01 6.27,-3.03 1.5,-2.02 2.25,-4.74 2.25,-8.16 0,-3.42 -0.14,-5.93 -0.42,-7.53 -0.28,-1.6 -0.92,-3.06 -1.92,-4.38l-0.72 -0.96 0.72 -0.9 7.31 -0.77 0 31.97c0,4.92 -1.18,8.71 -3.56,11.37 -2.38,2.66 -5.63,3.99 -9.75,3.99z"/>
      <path id="_1_2" class="fil4" d="M1567.29 374.3c-0.56,-1.36 -1.4,-2.47 -2.52,-3.33 -1.12,-0.86 -2.44,-1.29 -3.96,-1.29 -2.56,0 -4.63,1.17 -6.21,3.51 -1.58,2.34 -2.37,5.4 -2.37,9.18 0,3.78 0.74,6.79 2.22,9.03 1.48,2.24 3.48,3.36 6,3.36 2.52,0 4.57,-1.13 6.15,-3.39 1.58,-2.26 2.37,-5.03 2.37,-8.31 0,-3.28 -0.56,-6.2 -1.68,-8.76zm-6.66 23.7c-4.48,0 -8.04,-1.42 -10.68,-4.26 -2.64,-2.84 -3.96,-6.67 -3.96,-11.49 0,-4.82 1.32,-8.64 3.96,-11.46 2.64,-2.82 6.2,-4.22 10.68,-4.22 4.48,0 8.04,1.4 10.68,4.22 2.63,2.82 3.95,6.64 3.95,11.46 0,4.82 -1.32,8.65 -3.95,11.49 -2.64,2.84 -6.2,4.26 -10.68,4.26z"/>
      <path id="_2_3" class="fil4" d="M1597.04 369.86c-2.92,0 -5.18,1.09 -6.78,3.27 -1.6,2.18 -2.4,5.05 -2.4,8.61 0,3.56 0.65,6.1 1.95,7.62 1.3,1.52 2.93,2.28 4.89,2.28 3.36,0 6.1,-1.82 8.22,-5.46l0 -14.46c-1.84,-1.24 -3.8,-1.86 -5.88,-1.86zm-1.32 40.86c2.48,0 4.3,-1.02 5.46,-3.06 1.16,-2.04 1.74,-4.78 1.74,-8.22l0 -9.54c-3.04,4.24 -6.58,6.36 -10.62,6.36 -3,0 -5.54,-1.12 -7.62,-3.36 -2.08,-2.24 -3.12,-5.4 -3.12,-9.48 0,-5.2 1.4,-9.31 4.2,-12.33 2.8,-3.02 6.58,-4.52 11.34,-4.52 1.36,0 3.41,0.23 6.15,0.68 2.74,0.46 4.69,0.73 5.84,0.81l0.66 0.78 -0.72 1.08c-0.52,0.8 -0.78,1.58 -0.78,2.34l0 26.22c0,4.92 -1.18,8.71 -3.56,11.37 -2.38,2.66 -5.63,3.99 -9.75,3.99 -3.28,0 -5.81,-0.85 -7.59,-2.55 -1.78,-1.7 -2.67,-3.63 -2.67,-5.79 0,-2.16 0.68,-3.95 2.04,-5.37 1.36,-1.42 3.22,-2.13 5.58,-2.13 0.76,0 1.14,0.22 1.14,0.66 0,0.16 -0.24,0.48 -0.72,0.96 -0.48,0.48 -0.97,1.2 -1.47,2.16 -0.5,0.96 -0.75,2.16 -0.75,3.6 0,1.44 0.47,2.69 1.41,3.75 0.94,1.06 2.21,1.59 3.81,1.59z"/>
      <path id="_3" class="fil4" d="M1627.51 398c-3,0 -5.54,-1.27 -7.62,-3.81 -2.08,-2.54 -3.12,-6.27 -3.12,-11.19 0,-4.92 1.4,-8.89 4.2,-11.91 2.8,-3.02 6.58,-4.52 11.34,-4.52 1.36,0 3.41,0.23 6.15,0.68 2.74,0.46 4.69,0.73 5.84,0.81l0.66 0.78 -0.72 1.08c-0.51,0.8 -0.77,1.58 -0.77,2.34l0 19.62c0,1.24 0.6,1.86 1.79,1.86 0.96,0 1.96,-0.36 3,-1.08l1.14 1.56c-2.28,2.52 -4.5,3.78 -6.65,3.78 -1.64,0 -2.82,-0.5 -3.54,-1.5 -0.72,-1 -1.08,-2.62 -1.08,-4.86 -3.04,4.24 -6.58,6.36 -10.62,6.36zm4.74 -28.14c-2.92,0 -5.18,1.09 -6.78,3.27 -1.6,2.18 -2.4,5.2 -2.4,9.06 0,3.86 0.65,6.69 1.95,8.49 1.3,1.8 2.93,2.7 4.89,2.7 3.36,0 6.1,-1.82 8.22,-5.46l0 -16.2c-1.84,-1.24 -3.8,-1.86 -5.88,-1.86z"/>
      <path id="_4" class="fil5 str0" d="M1524.16 413.84c-3.28,0 -5.81,-0.85 -7.59,-2.55 -1.78,-1.7 -2.67,-3.63 -2.67,-5.79 0,-2.16 0.68,-3.95 2.04,-5.37 1.36,-1.42 3.22,-2.13 5.58,-2.13 0.76,0 1.14,0.22 1.14,0.66 0,0.16 -0.24,0.48 -0.72,0.96 -0.48,0.48 -0.97,1.2 -1.47,2.16 -0.5,0.96 -0.75,2.16 -0.75,3.6 0,1.44 0.47,2.69 1.41,3.75 0.94,1.06 2.21,1.59 3.81,1.59 2.48,0 4.3,-1.02 5.46,-3.06 1.16,-2.04 1.74,-4.78 1.74,-8.22l0 -8.88c-0.92,1.76 -2.3,3.15 -4.14,4.17 -1.84,1.02 -4.02,1.53 -6.54,1.53 -2.52,0 -4.58,-0.87 -6.18,-2.61 -1.6,-1.74 -2.4,-4.19 -2.4,-7.35l0 -13.32c0,-0.88 -0.4,-1.32 -1.2,-1.32l-2.64 0 -0.54 -1.56c1.04,-1.04 2.31,-1.9 3.81,-2.58 1.5,-0.67 2.71,-1.01 3.63,-1.01 1.6,0 2.4,0.64 2.4,1.91l0 16.5c0,4.88 1.88,7.32 5.64,7.32 2.68,0 4.77,-1.01 6.27,-3.03 1.5,-2.02 2.25,-4.74 2.25,-8.16 0,-3.42 -0.14,-5.93 -0.42,-7.53 -0.28,-1.6 -0.92,-3.06 -1.92,-4.38l-0.72 -0.96 0.72 -0.9 7.31 -0.77 0 31.97c0,4.92 -1.18,8.71 -3.56,11.37 -2.38,2.66 -5.63,3.99 -9.75,3.99z"/>
      <path id="_5" class="fil5 str0" d="M1567.29 374.3c-0.56,-1.36 -1.4,-2.47 -2.52,-3.33 -1.12,-0.86 -2.44,-1.29 -3.96,-1.29 -2.56,0 -4.63,1.17 -6.21,3.51 -1.58,2.34 -2.37,5.4 -2.37,9.18 0,3.78 0.74,6.79 2.22,9.03 1.48,2.24 3.48,3.36 6,3.36 2.52,0 4.57,-1.13 6.15,-3.39 1.58,-2.26 2.37,-5.03 2.37,-8.31 0,-3.28 -0.56,-6.2 -1.68,-8.76zm-6.66 23.7c-4.48,0 -8.04,-1.42 -10.68,-4.26 -2.64,-2.84 -3.96,-6.67 -3.96,-11.49 0,-4.82 1.32,-8.64 3.96,-11.46 2.64,-2.82 6.2,-4.22 10.68,-4.22 4.48,0 8.04,1.4 10.68,4.22 2.63,2.82 3.95,6.64 3.95,11.46 0,4.82 -1.32,8.65 -3.95,11.49 -2.64,2.84 -6.2,4.26 -10.68,4.26z"/>
      <path id="_6" class="fil5 str0" d="M1597.04 369.86c-2.92,0 -5.18,1.09 -6.78,3.27 -1.6,2.18 -2.4,5.05 -2.4,8.61 0,3.56 0.65,6.1 1.95,7.62 1.3,1.52 2.93,2.28 4.89,2.28 3.36,0 6.1,-1.82 8.22,-5.46l0 -14.46c-1.84,-1.24 -3.8,-1.86 -5.88,-1.86zm-1.32 40.86c2.48,0 4.3,-1.02 5.46,-3.06 1.16,-2.04 1.74,-4.78 1.74,-8.22l0 -9.54c-3.04,4.24 -6.58,6.36 -10.62,6.36 -3,0 -5.54,-1.12 -7.62,-3.36 -2.08,-2.24 -3.12,-5.4 -3.12,-9.48 0,-5.2 1.4,-9.31 4.2,-12.33 2.8,-3.02 6.58,-4.52 11.34,-4.52 1.36,0 3.41,0.23 6.15,0.68 2.74,0.46 4.69,0.73 5.84,0.81l0.66 0.78 -0.72 1.08c-0.52,0.8 -0.78,1.58 -0.78,2.34l0 26.22c0,4.92 -1.18,8.71 -3.56,11.37 -2.38,2.66 -5.63,3.99 -9.75,3.99 -3.28,0 -5.81,-0.85 -7.59,-2.55 -1.78,-1.7 -2.67,-3.63 -2.67,-5.79 0,-2.16 0.68,-3.95 2.04,-5.37 1.36,-1.42 3.22,-2.13 5.58,-2.13 0.76,0 1.14,0.22 1.14,0.66 0,0.16 -0.24,0.48 -0.72,0.96 -0.48,0.48 -0.97,1.2 -1.47,2.16 -0.5,0.96 -0.75,2.16 -0.75,3.6 0,1.44 0.47,2.69 1.41,3.75 0.94,1.06 2.21,1.59 3.81,1.59z"/>
      <path id="_7" class="fil5 str0" d="M1627.51 398c-3,0 -5.54,-1.27 -7.62,-3.81 -2.08,-2.54 -3.12,-6.27 -3.12,-11.19 0,-4.92 1.4,-8.89 4.2,-11.91 2.8,-3.02 6.58,-4.52 11.34,-4.52 1.36,0 3.41,0.23 6.15,0.68 2.74,0.46 4.69,0.73 5.84,0.81l0.66 0.78 -0.72 1.08c-0.51,0.8 -0.77,1.58 -0.77,2.34l0 19.62c0,1.24 0.6,1.86 1.79,1.86 0.96,0 1.96,-0.36 3,-1.08l1.14 1.56c-2.28,2.52 -4.5,3.78 -6.65,3.78 -1.64,0 -2.82,-0.5 -3.54,-1.5 -0.72,-1 -1.08,-2.62 -1.08,-4.86 -3.04,4.24 -6.58,6.36 -10.62,6.36zm4.74 -28.14c-2.92,0 -5.18,1.09 -6.78,3.27 -1.6,2.18 -2.4,5.2 -2.4,9.06 0,3.86 0.65,6.69 1.95,8.49 1.3,1.8 2.93,2.7 4.89,2.7 3.36,0 6.1,-1.82 8.22,-5.46l0 -16.2c-1.84,-1.24 -3.8,-1.86 -5.88,-1.86z"/>
      <path class="fil4" d="M1507.67 442.95l-3.2 7.86c-0.07,0.17 -0.21,0.25 -0.4,0.25l-1.82 0c-0.31,0 -0.41,-0.13 -0.29,-0.4l10 -24.47c0.1,-0.22 0.25,-0.33 0.47,-0.33l1.89 0c0.25,0 0.42,0.11 0.51,0.33l9.96 24.47c0.13,0.27 0.04,0.4 -0.25,0.4l-1.89 0c-0.15,0 -0.27,-0.08 -0.36,-0.25l-3.2 -7.86 -11.42 0zm0.94 -2.33l9.57 0 -4.77 -11.78 -4.8 11.78z"/>
      <path id="_1_4" class="fil4" d="M1539.85 448.73c0.22,0 0.33,0.12 0.33,0.37l0 1.63c0,0.22 -0.11,0.33 -0.33,0.33l-11.27 0c-0.24,0 -0.36,-0.11 -0.36,-0.33l0 -24.54c0,-0.24 0.12,-0.36 0.36,-0.36l1.85 0c0.22,0 0.33,0.12 0.33,0.36l0 22.54 9.09 0z"/>
      <path id="_2_5" class="fil4" d="M1555.96 448.73c0.22,0 0.33,0.12 0.33,0.37l0 1.63c0,0.22 -0.11,0.33 -0.33,0.33l-11.27 0c-0.24,0 -0.36,-0.11 -0.36,-0.33l0 -24.54c0,-0.24 0.12,-0.36 0.36,-0.36l1.85 0c0.22,0 0.33,0.12 0.33,0.36l0 22.54 9.09 0z"/>
      <path id="_3_6" class="fil4" d="M1562.98 450.73c0,0.22 -0.11,0.33 -0.33,0.33l-1.89 0c-0.21,0 -0.32,-0.11 -0.32,-0.33l0 -24.54c0,-0.24 0.11,-0.36 0.32,-0.36l1.86 0c0.24,0 0.36,0.12 0.36,0.36l0 24.54z"/>
      <path id="_4_7" class="fil4" d="M1572.11 442.95l-3.2 7.86c-0.07,0.17 -0.21,0.25 -0.4,0.25l-1.82 0c-0.31,0 -0.41,-0.13 -0.29,-0.4l10 -24.47c0.1,-0.22 0.25,-0.33 0.47,-0.33l1.89 0c0.25,0 0.42,0.11 0.51,0.33l9.96 24.47c0.13,0.27 0.04,0.4 -0.25,0.4l-1.89 0c-0.15,0 -0.27,-0.08 -0.36,-0.25l-3.2 -7.86 -11.42 0zm0.94 -2.33l9.57 0 -4.77 -11.78 -4.8 11.78z"/>
      <path id="_5_8" class="fil4" d="M1610.47 425.83c0.22,0 0.33,0.12 0.33,0.36l0 24.51c0,0.24 -0.11,0.36 -0.33,0.36l-2.29 0c-0.17,0 -0.31,-0.07 -0.43,-0.22l-12.55 -20.91 0 20.77c0,0.24 -0.11,0.36 -0.33,0.36l-1.85 0c-0.24,0 -0.36,-0.12 -0.36,-0.36l0 -24.51c0,-0.24 0.12,-0.36 0.36,-0.36l2.33 0c0.19,0 0.32,0.08 0.4,0.25l12.51 20.91 0 -20.8c0,-0.24 0.12,-0.36 0.36,-0.36l1.85 0z"/>
      <path id="_6_9" class="fil4" d="M1637.42 448.08c-1.24,1.16 -2.64,2.01 -4.2,2.54 -1.56,0.54 -3.18,0.8 -4.86,0.8 -1.91,0 -3.66,-0.31 -5.25,-0.94 -1.59,-0.63 -2.94,-1.51 -4.07,-2.64 -1.13,-1.13 -2,-2.49 -2.62,-4.09 -0.62,-1.6 -0.93,-3.36 -0.93,-5.27 0,-2.16 0.37,-4.05 1.11,-5.67 0.74,-1.63 1.71,-2.98 2.91,-4.06 1.2,-1.08 2.58,-1.89 4.13,-2.43 1.55,-0.55 3.13,-0.82 4.72,-0.82 1.68,0 3.3,0.28 4.86,0.84 1.56,0.55 2.95,1.4 4.16,2.54 0.17,0.15 0.17,0.3 0,0.47l-1.23 1.17c-0.17,0.17 -0.34,0.17 -0.51,0 -0.37,-0.32 -0.78,-0.63 -1.24,-0.93 -0.46,-0.3 -0.99,-0.58 -1.58,-0.82 -0.59,-0.24 -1.26,-0.44 -1.98,-0.58 -0.73,-0.15 -1.55,-0.22 -2.48,-0.22 -1.52,0 -2.92,0.26 -4.19,0.76 -1.28,0.51 -2.37,1.23 -3.28,2.15 -0.91,0.92 -1.61,2.02 -2.11,3.31 -0.49,1.28 -0.74,2.71 -0.74,4.29 0,1.55 0.25,2.97 0.74,4.25 0.5,1.29 1.2,2.39 2.11,3.31 0.91,0.92 2,1.63 3.26,2.13 1.26,0.5 2.66,0.74 4.21,0.74 0.88,0 1.68,-0.07 2.4,-0.21 0.73,-0.15 1.39,-0.34 1.99,-0.59 0.59,-0.24 1.12,-0.51 1.6,-0.81 0.47,-0.31 0.89,-0.62 1.25,-0.93 0.07,-0.07 0.16,-0.1 0.27,-0.09 0.11,0.01 0.2,0.05 0.28,0.13l1.27 1.16c0.17,0.17 0.17,0.34 0,0.51z"/>
      <path id="_7_10" class="fil4" d="M1644.43 448.73l11.27 0c0.25,0 0.37,0.12 0.37,0.37l0 1.63c0,0.22 -0.11,0.33 -0.33,0.33l-13.49 0c-0.24,0 -0.36,-0.12 -0.36,-0.36l0 -24.51c0,-0.24 0.12,-0.36 0.36,-0.36l13.13 0c0.24,0 0.36,0.12 0.36,0.36l0 1.64c0,0.21 -0.12,0.32 -0.36,0.32l-10.95 0 0 8.88 9.2 0c0.24,0 0.36,0.12 0.36,0.36l0 1.6c0,0.24 -0.12,0.36 -0.36,0.36l-9.2 0 0 9.38z"/>
     </g>
    </g>
    <path class="fil3" d="M1396.43 288.47l-31.27 4.17 -1.76 -13.29c-0.45,-3.33 -0.49,-5.8 -0.14,-7.39 0.36,-1.59 1.2,-2.94 2.52,-4.03 1.31,-1.11 2.9,-1.78 4.74,-2.03 2.35,-0.31 4.38,0.12 6.09,1.3 1.72,1.17 2.95,3.1 3.71,5.79 0.62,-1.48 1.34,-2.71 2.18,-3.73 0.83,-1.01 2.37,-2.44 4.59,-4.27l5.59 -4.63 1.01 7.55 -6.2 5.47c-2.21,1.95 -3.59,3.26 -4.15,3.94 -0.56,0.68 -0.9,1.38 -1.04,2.07 -0.15,0.7 -0.12,1.78 0.07,3.23l0.17 1.28 13.06 -1.75 0.83 6.32zm-18.88 -3.9l-0.62 -4.67c-0.41,-3.04 -0.79,-4.9 -1.15,-5.63 -0.36,-0.72 -0.87,-1.25 -1.56,-1.59 -0.68,-0.34 -1.49,-0.45 -2.43,-0.33 -1.06,0.14 -1.86,0.53 -2.43,1.18 -0.57,0.65 -0.88,1.5 -0.91,2.55 -0.01,0.52 0.17,2.06 0.5,4.62l0.67 4.92 7.93 -1.05z"/>
    <polygon id="_1_11" class="fil3" points="1393.48,256.71 1361.93,256.28 1362.26,232.89 1367.6,232.97 1367.36,249.98 1374.35,250.08 1374.58,234.25 1379.89,234.32 1379.67,250.15 1388.25,250.27 1388.5,232.65 1393.81,232.73 "/>
    <path id="_2_12" class="fil3" d="M1386.38 210.38l-5.18 -1.17 3.03 -13.4 12.26 2.78c0.96,1.59 1.64,3.72 2.04,6.41 0.39,2.68 0.31,5.29 -0.26,7.83 -0.73,3.22 -2.05,5.87 -3.94,7.96 -1.89,2.08 -4.22,3.44 -7,4.07 -2.78,0.64 -5.65,0.62 -8.61,-0.04 -3.2,-0.73 -5.9,-2.05 -8.08,-3.95 -2.19,-1.91 -3.65,-4.31 -4.4,-7.2 -0.57,-2.21 -0.52,-4.78 0.14,-7.7 0.86,-3.83 2.35,-6.64 4.43,-8.42 2.08,-1.78 4.62,-2.67 7.58,-2.64l-0.25 6.43c-1.6,0.09 -2.98,0.64 -4.12,1.64 -1.16,1 -1.92,2.38 -2.33,4.18 -0.61,2.72 -0.25,5.07 1.11,7.06 1.36,2 3.74,3.37 7.12,4.14 3.65,0.82 6.57,0.64 8.77,-0.57 2.19,-1.21 3.58,-3.13 4.17,-5.77 0.3,-1.29 0.35,-2.66 0.13,-4.08 -0.22,-1.43 -0.58,-2.69 -1.1,-3.79l-3.9 -0.89 -1.61 7.12z"/>
    <polygon id="_3_13" class="fil3" points="1403.39,194.44 1373.41,184.61 1375.39,178.56 1405.39,188.38 "/>
    <path id="_4_14" class="fil3" d="M1397.04 179.29l2.29 -5.8c2.03,0.62 3.74,0.64 5.12,0.07 1.39,-0.57 2.53,-1.71 3.42,-3.43 0.93,-1.83 1.25,-3.4 0.95,-4.73 -0.3,-1.32 -0.96,-2.25 -1.99,-2.78 -0.67,-0.33 -1.34,-0.43 -2,-0.28 -0.67,0.14 -1.42,0.62 -2.27,1.41 -0.56,0.55 -1.75,1.86 -3.55,3.92 -2.31,2.65 -4.34,4.31 -6.06,4.97 -2.44,0.93 -4.76,0.82 -6.98,-0.31 -1.43,-0.74 -2.56,-1.83 -3.38,-3.28 -0.84,-1.45 -1.18,-3.11 -1.05,-4.97 0.13,-1.86 0.75,-3.86 1.85,-6.03 1.82,-3.52 3.96,-5.77 6.4,-6.76 2.47,-0.99 5,-0.87 7.63,0.37l-2.66 5.8c-1.56,-0.51 -2.87,-0.51 -3.92,-0.04 -1.03,0.46 -1.96,1.5 -2.78,3.1 -0.85,1.65 -1.17,3.11 -0.97,4.39 0.13,0.82 0.55,1.43 1.28,1.8 0.67,0.33 1.38,0.36 2.14,0.03 0.96,-0.41 2.48,-1.83 4.54,-4.25 2.07,-2.43 3.8,-4.12 5.17,-5.08 1.38,-0.97 2.86,-1.51 4.45,-1.64 1.58,-0.12 3.26,0.27 5.04,1.18 1.62,0.81 2.88,2.04 3.84,3.65 0.93,1.62 1.34,3.42 1.18,5.4 -0.15,1.99 -0.85,4.19 -2.11,6.64 -1.83,3.55 -4.04,5.85 -6.65,6.92 -2.62,1.06 -5.6,0.97 -8.93,-0.27z"/>
    <polygon id="_5_15" class="fil3" points="1425.01,150.55 1403.72,135.24 1398.25,142.84 1393.91,139.72 1408.57,119.37 1412.9,122.49 1407.45,130.07 1428.73,145.39 "/>
    <polygon id="_6_16" class="fil3" points="1436.67,134.56 1413.97,112.67 1430.21,95.83 1434.06,99.53 1422.24,111.78 1427.26,116.64 1438.27,105.25 1442.09,108.93 1431.09,120.33 1437.27,126.3 1449.51,113.61 1453.35,117.3 "/>
    <path id="_7_17" class="fil3" d="M1457.14 113.73l-19.44 -24.87 10.56 -8.26c2.66,-2.08 4.77,-3.36 6.33,-3.86 1.55,-0.5 3.13,-0.45 4.75,0.12 1.62,0.58 3,1.59 4.15,3.07 1.46,1.86 2.12,3.84 1.97,5.91 -0.15,2.07 -1.2,4.12 -3.12,6.14 1.57,-0.21 3.01,-0.22 4.32,-0.01 1.29,0.21 3.3,0.81 6.01,1.8l6.83 2.48 -6 4.69 -7.86 -2.57c-2.81,-0.93 -4.64,-1.46 -5.51,-1.59 -0.87,-0.13 -1.64,-0.08 -2.32,0.16 -0.67,0.22 -1.59,0.78 -2.74,1.68l-1.03 0.8 8.12 10.39 -5.02 3.92zm-6.19 -18.28l3.71 -2.9c2.41,-1.89 3.83,-3.15 4.27,-3.84 0.45,-0.67 0.64,-1.39 0.59,-2.15 -0.05,-0.76 -0.37,-1.51 -0.95,-2.26 -0.66,-0.84 -1.41,-1.34 -2.26,-1.5 -0.85,-0.17 -1.73,0 -2.65,0.5 -0.45,0.26 -1.7,1.19 -3.73,2.78l-3.92 3.07 4.94 6.3z"/>
    <polygon id="_8" class="fil3" points="1483.12,94.82 1468.39,66.88 1489.1,55.96 1491.59,60.68 1476.51,68.63 1479.78,74.82 1493.8,67.43 1496.28,72.13 1482.27,79.54 1486.28,87.13 1501.88,78.9 1504.37,83.61 "/>
    <path id="_9" class="fil3" d="M1498.97 51.77l11 -3.77c2.49,-0.85 4.44,-1.3 5.88,-1.37 1.92,-0.09 3.73,0.32 5.43,1.21 1.7,0.88 3.21,2.17 4.51,3.86 1.3,1.68 2.43,3.92 3.39,6.72 0.85,2.45 1.26,4.67 1.25,6.65 0,2.43 -0.46,4.55 -1.38,6.37 -0.7,1.37 -1.84,2.65 -3.42,3.82 -1.19,0.88 -2.89,1.71 -5.12,2.47l-11.34 3.88 -10.2 -29.84zm7.74 2.98l6.76 19.77 4.51 -1.54c1.68,-0.58 2.86,-1.09 3.54,-1.53 0.89,-0.58 1.56,-1.27 2.01,-2.08 0.45,-0.8 0.64,-1.94 0.59,-3.42 -0.05,-1.47 -0.47,-3.36 -1.26,-5.67 -0.79,-2.31 -1.61,-4.01 -2.43,-5.11 -0.82,-1.09 -1.72,-1.85 -2.7,-2.31 -0.97,-0.43 -2.06,-0.58 -3.27,-0.44 -0.9,0.1 -2.59,0.57 -5.04,1.41l-2.71 0.92z"/>
    <polygon id="_10" class="fil3" points="1559.17,69.37 1558.1,56.13 1545.11,38.84 1552.55,38.24 1560.96,50.09 1567.22,37.05 1574.53,36.46 1564.44,55.66 1565.49,68.86 "/>
    <path id="_11" class="fil3" d="M1580.3 52.73c0.27,-3.2 0.97,-5.85 2.11,-7.95 0.84,-1.54 1.94,-2.89 3.28,-4.06 1.33,-1.18 2.77,-2 4.29,-2.5 2.03,-0.67 4.32,-0.9 6.88,-0.68 4.64,0.38 8.22,2.12 10.76,5.22 2.54,3.1 3.61,7.21 3.18,12.32 -0.41,5.09 -2.11,8.94 -5.12,11.57 -2.99,2.65 -6.79,3.77 -11.41,3.39 -4.68,-0.38 -8.27,-2.11 -10.8,-5.19 -2.52,-3.08 -3.57,-7.12 -3.17,-12.12zm6.56 0.32c-0.29,3.56 0.31,6.33 1.8,8.3 1.5,1.97 3.5,3.06 6.03,3.26 2.53,0.21 4.68,-0.52 6.46,-2.21 1.77,-1.69 2.81,-4.36 3.11,-8 0.3,-3.61 -0.28,-6.36 -1.71,-8.26 -1.44,-1.9 -3.46,-2.96 -6.08,-3.18 -2.61,-0.21 -4.79,0.51 -6.54,2.17 -1.74,1.67 -2.77,4.3 -3.07,7.92z"/>
    <path id="_12" class="fil3" d="M1632.4 64.56l1.59 -5.08 13.1 4.11 -3.75 12c-1.66,0.83 -3.85,1.34 -6.55,1.52 -2.72,0.18 -5.31,-0.12 -7.8,-0.89 -3.15,-0.99 -5.68,-2.51 -7.61,-4.57 -1.93,-2.05 -3.09,-4.48 -3.5,-7.32 -0.42,-2.82 -0.16,-5.68 0.73,-8.57 1,-3.14 2.53,-5.72 4.6,-7.75 2.08,-2.02 4.59,-3.29 7.53,-3.8 2.24,-0.39 4.8,-0.13 7.67,0.76 3.75,1.17 6.42,2.87 8.03,5.09 1.62,2.23 2.29,4.82 2.02,7.78l-6.39 -0.77c0.04,-1.61 -0.39,-3.03 -1.3,-4.25 -0.9,-1.22 -2.22,-2.11 -3.98,-2.65 -2.66,-0.83 -5.04,-0.65 -7.12,0.55 -2.11,1.19 -3.67,3.44 -4.71,6.76 -1.12,3.56 -1.16,6.49 -0.13,8.78 1.03,2.29 2.82,3.83 5.4,4.63 1.28,0.41 2.64,0.56 4.07,0.46 1.43,-0.11 2.73,-0.36 3.86,-0.79l1.2 -3.83 -6.96 -2.17z"/>
    <path id="_13" class="fil3" d="M1673.19 93.12l-6.31 -2.87 0.47 -7.67 -11.47 -5.23 -5.35 5.44 -6.14 -2.8 24.25 -23.6 6.14 2.79 -1.59 33.94zm-5.49 -16.22l0.89 -12.46 -8.72 8.89 7.83 3.57z"/>
    <polygon id="_14" class="fil3" points="1690.53,105.8 1706.79,85.26 1699.46,79.44 1702.77,75.26 1722.43,90.82 1719.11,95 1711.79,89.21 1695.52,109.75 "/>
    <polygon id="_15" class="fil3" points="1705.86,118.47 1728.66,96.69 1744.81,113.6 1740.96,117.28 1729.2,104.98 1724.15,109.81 1735.09,121.26 1731.25,124.93 1720.31,113.48 1714.1,119.41 1726.28,132.14 1722.43,135.82 "/>
    <path id="_16" class="fil3" d="M1741.34 163.95l-3.74 -5.82 4.54 -6.19 -6.82 -10.62 -7.43 1.69 -3.65 -5.69 33.18 -6.71 3.64 5.67 -19.72 27.67zm4.17 -16.6l7.5 -9.99 -12.15 2.75 4.65 7.24z"/>
    <path id="_17" class="fil3" d="M1762.29 180.2l0.79 6.43c-3.53,0.58 -6.51,0.21 -8.94,-1.09 -2.44,-1.31 -4.36,-3.49 -5.78,-6.57 -1.74,-3.81 -1.88,-7.53 -0.41,-11.19 1.47,-3.64 4.47,-6.5 8.99,-8.57 4.77,-2.19 9.03,-2.66 12.82,-1.41 3.77,1.26 6.58,3.89 8.42,7.9 1.61,3.52 1.88,6.83 0.81,9.99 -0.63,1.86 -1.94,3.64 -3.93,5.35l-4.01 -5.1c1.33,-1.03 2.18,-2.27 2.55,-3.73 0.37,-1.47 0.2,-2.99 -0.51,-4.52 -0.97,-2.13 -2.53,-3.5 -4.66,-4.13 -2.13,-0.63 -4.9,-0.15 -8.32,1.42 -3.63,1.66 -5.91,3.5 -6.86,5.52 -0.93,2 -0.93,4.05 0.03,6.14 0.71,1.54 1.81,2.63 3.29,3.29 1.49,0.67 3.39,0.75 5.72,0.27z"/>
    <polygon id="_18" class="fil3" points="1756.03,196.04 1786.78,189 1788.2,195.21 1776.1,197.98 1778.88,210.15 1790.99,207.37 1792.4,213.59 1761.65,220.61 1760.23,214.41 1773.68,211.33 1770.9,199.17 1757.45,202.25 "/>
    <polygon id="_19" class="fil3" points="1762.72,226.96 1794.18,224.42 1796.06,247.74 1790.73,248.17 1789.37,231.2 1782.39,231.76 1783.67,247.56 1778.37,247.98 1777.1,232.19 1768.53,232.89 1769.95,250.46 1764.65,250.88 "/>
    <path id="_20" class="fil3" d="M1764.71 256.53l31.42 2.59 -1.1 13.35c-0.28,3.36 -0.76,5.77 -1.45,7.24 -0.69,1.49 -1.8,2.63 -3.31,3.42 -1.52,0.79 -3.2,1.12 -5.07,0.96 -2.35,-0.2 -4.24,-1.04 -5.67,-2.56 -1.42,-1.52 -2.21,-3.66 -2.39,-6.45 -0.91,1.3 -1.88,2.36 -2.92,3.18 -1.02,0.81 -2.83,1.88 -5.39,3.19l-6.45 3.33 0.62 -7.59 7.22 -4.02c2.58,-1.43 4.21,-2.42 4.9,-2.97 0.67,-0.54 1.17,-1.14 1.46,-1.79 0.29,-0.65 0.5,-1.71 0.62,-3.17l0.1 -1.28 -13.12 -1.09 0.53 -6.34zm17.61 7.84l-0.39 4.69c-0.25,3.05 -0.28,4.95 -0.09,5.74 0.21,0.77 0.6,1.41 1.18,1.88 0.6,0.49 1.37,0.76 2.32,0.84 1.05,0.09 1.93,-0.12 2.62,-0.64 0.7,-0.5 1.18,-1.27 1.44,-2.28 0.11,-0.51 0.27,-2.05 0.49,-4.62l0.4 -4.95 -7.97 -0.66z"/>
   </g>
   <g>
    <path class="fil1" d="M1058.32 9.81c67.4,0 128.45,27.34 172.64,71.52 44.2,44.21 71.54,105.26 71.54,172.66 0,67.4 -27.34,128.45 -71.52,172.64 -44.21,44.2 -105.26,71.54 -172.66,71.54 -67.4,0 -128.45,-27.34 -172.64,-71.52 -44.2,-44.21 -71.54,-105.26 -71.54,-172.66 0,-67.4 27.34,-128.45 71.52,-172.64 44.21,-44.2 105.26,-71.54 172.66,-71.54zm165.62 78.56c-42.37,-42.38 -100.93,-68.6 -165.62,-68.6 -64.69,0 -123.25,26.22 -165.61,68.59 -42.39,42.38 -68.61,100.94 -68.61,165.63 0,64.69 26.22,123.25 68.59,165.61 42.38,42.39 100.94,68.61 165.63,68.61 64.69,0 123.25,-26.22 165.61,-68.59 42.39,-42.38 68.61,-100.94 68.61,-165.63 0,-64.69 -26.22,-123.25 -68.6,-165.62z"/>
    <g>
     <g>
      <path class="fil2" d="M1065.87 280.54c-0.07,0 -28.65,-2.29 -33.37,16.77 -2.18,8.81 3.33,24.3 13.45,39.24 6.96,10.27 16.12,20.08 26.44,27.17 9.94,6.84 21.02,11.09 32.15,10.65 10.57,-0.42 21.55,-5.16 32.17,-16.02 22.34,-22.81 53.59,-43.13 71.44,-53.86 -6.66,-2.29 -12.67,-5.17 -18.03,-8.61 -9.43,-6.04 -16.94,-13.8 -22.67,-22.99l10.95 -6.82c4.72,7.6 10.93,14.01 18.68,18.97 7.89,5.06 17.54,8.74 29.05,10.8l19.04 3.45 -17.3 8.64c-0.13,0.05 -50.28,27.1 -81.97,59.47 -13.14,13.42 -27.13,19.31 -40.85,19.86 -14.17,0.57 -27.86,-4.59 -39.95,-12.89 -11.68,-8 -21.98,-19.08 -29.8,-30.61 -12.05,-17.78 -18.37,-37.28 -15.33,-49.53 7.49,-30.26 45.81,-26.62 45.9,-26.62l0 12.93z"/>
      <path class="fil2" d="M1085.45 246.72c0,0.08 -1.43,28.47 17.87,32.57 8.89,1.89 24.2,-4.13 38.77,-14.74 10.07,-7.34 19.61,-16.82 26.31,-27.31 6.47,-10.13 10.35,-21.31 9.54,-32.48 -0.77,-10.57 -5.86,-21.39 -17.04,-31.62 -23.75,-21.75 -45.02,-52.26 -56.23,-69.58 -2.05,6.71 -4.74,12.77 -7.98,18.24 -5.71,9.63 -13.22,17.39 -22.27,23.42l-7.17 -10.69c7.45,-4.98 13.66,-11.37 18.34,-19.28 4.76,-8.04 8.13,-17.82 9.83,-29.44l2.55 -17.36 9.32 14.88c0.07,0.13 29.04,49.86 62.29,80.32 13.91,12.75 20.24,26.52 21.25,40.19 1.01,14.1 -3.7,27.98 -11.59,40.32 -7.65,11.97 -18.34,22.67 -29.57,30.81 -17.39,12.64 -36.69,19.59 -49.03,16.96 -30.37,-6.47 -28.12,-45.12 -28.12,-45.21l12.93 0z"/>
      <path class="fil2" d="M1051.21 228.05c0.07,0 28.29,0.58 31.76,-18.92 1.62,-8.95 -4.9,-24.02 -16,-38.24 -7.61,-9.78 -17.39,-19.01 -28.19,-25.4 -10.37,-6.15 -21.7,-9.68 -32.81,-8.51 -10.48,1.12 -21.13,6.57 -31,18.11 -20.82,24.33 -50.64,46.65 -67.69,58.49 6.79,1.85 12.95,4.32 18.51,7.38 9.78,5.38 17.76,12.63 24.12,21.48l-10.44 7.5c-5.18,-7.21 -11.79,-13.21 -19.9,-17.66 -8.22,-4.53 -18.11,-7.57 -29.72,-8.87l-18.38 -2.06 15.69 -9.82c0.13,-0.07 48.57,-30.46 78,-64.83 12.23,-14.3 25.81,-21.07 39.45,-22.54 14.14,-1.48 28.14,2.77 40.72,10.24 12.21,7.23 23.22,17.59 31.79,28.58 13.2,16.91 20.78,35.96 18.54,48.39 -5.42,30.52 -44.36,29.6 -44.45,29.6l0 -12.92z"/>
      <path class="fil2" d="M1032.92 261.33c0,-0.07 1.5,-28.49 -17.76,-32.62 -8.88,-1.93 -24.21,4.08 -38.8,14.64 -10.07,7.29 -19.64,16.76 -26.38,27.25 -6.5,10.12 -10.42,21.31 -9.63,32.46 0.71,10.54 5.8,21.38 16.97,31.65 23.64,21.76 44.86,52.35 56.03,69.71 2.08,-6.7 4.77,-12.76 8.03,-18.24 5.77,-9.61 13.3,-17.36 22.34,-23.36l7.1 10.76c-7.43,4.95 -13.64,11.32 -18.38,19.23 -4.78,8.02 -8.16,17.78 -9.89,29.38l-2.56 17.34 -9.3 -14.86c-0.07,-0.13 -28.89,-49.88 -62.12,-80.47 -13.82,-12.71 -20.16,-26.55 -21.11,-40.23 -0.99,-14.15 3.75,-27.97 11.68,-40.33 7.67,-11.96 18.4,-22.59 29.64,-30.72 17.41,-12.62 36.73,-19.52 49.07,-16.85 30.37,6.56 27.99,45.17 27.99,45.26l-12.92 0z"/>
     </g>
     <g>
      <path class="fil2" d="M1092.16 235.15c15.77,-24.4 46.16,-19.7 44.34,16.58 -10.52,-17.98 -25.81,-21.94 -44.34,-16.58z"/>
      <path class="fil2" d="M1074.74 288.96c23.59,16.99 17.37,47.1 -18.78,43.46 18.48,-9.61 23.21,-24.67 18.78,-43.46z"/>
      <path class="fil2" d="M1023 271.37c-16.51,23.89 -46.72,18.28 -43.81,-17.92 9.96,18.27 25.13,22.7 43.81,17.92z"/>
      <path class="fil2" d="M1037.58 220.41c-25.13,-14.56 -21.91,-45.15 14.41,-45.08 -17.44,11.38 -20.65,26.83 -14.41,45.08z"/>
     </g>
    </g>
    <g>
     <g>
      <path class="fil3" d="M983.07 236.39l-21.03 -36.7 -5.36 0 0 36.7 -23.5 0 0 -97.17 40.13 0c7.7,0 14.2,1.33 19.52,3.99 5.31,2.65 9.3,6.3 11.96,10.92 2.65,4.63 3.98,9.92 3.98,15.88 0,7.05 -1.95,13.05 -5.84,18 -3.89,4.95 -9.55,8.34 -16.97,10.17l23.09 38.21 -25.98 0zm-26.39 -52.78l14.57 0c4.67,0 8.11,-1.03 10.31,-3.09 2.2,-2.06 3.3,-5.11 3.3,-9.14 0,-3.85 -1.13,-6.87 -3.37,-9.07 -2.25,-2.2 -5.66,-3.3 -10.24,-3.3l-14.57 0 0 24.6z"/>
      <polygon id="_1_18" class="fil3" points="1104.56,139.22 1070.89,204.09 1070.89,236.39 1047.25,236.39 1047.25,204.09 1013.58,139.22 1040.52,139.22 1059.21,178.8 1077.9,139.22 "/>
      <path id="_2_19" class="fil3" d="M1183.46 209.04c0,5.13 -1.31,9.85 -3.92,14.16 -2.61,4.3 -6.46,7.74 -11.54,10.3 -5.09,2.57 -11.25,3.85 -18.49,3.85 -10.9,0 -19.88,-2.66 -26.94,-7.97 -7.05,-5.31 -10.9,-12.74 -11.54,-22.26l25.01 0c0.37,3.66 1.67,6.55 3.92,8.65 2.24,2.11 5.11,3.17 8.59,3.17 3.02,0 5.4,-0.83 7.15,-2.48 1.74,-1.65 2.61,-3.85 2.61,-6.6 0,-2.47 -0.8,-4.53 -2.41,-6.18 -1.6,-1.65 -3.59,-3 -5.98,-4.06 -2.38,-1.05 -5.68,-2.31 -9.89,-3.77 -6.14,-2.11 -11.16,-4.15 -15.05,-6.12 -3.9,-1.97 -7.24,-4.9 -10.04,-8.8 -2.79,-3.89 -4.19,-8.95 -4.19,-15.18 0,-5.78 1.47,-10.77 4.4,-14.99 2.93,-4.21 6.99,-7.44 12.16,-9.68 5.18,-2.25 11.11,-3.37 17.8,-3.37 10.81,0 19.4,2.56 25.77,7.69 6.37,5.14 9.97,12.19 10.79,21.17l-25.42 0c-0.46,-3.21 -1.63,-5.75 -3.51,-7.63 -1.88,-1.88 -4.42,-2.81 -7.63,-2.81 -2.75,0 -4.97,0.73 -6.66,2.19 -1.7,1.47 -2.55,3.62 -2.55,6.46 0,2.29 0.76,4.24 2.27,5.84 1.51,1.61 3.42,2.91 5.71,3.92 2.29,1.01 5.58,2.29 9.89,3.85 6.23,2.11 11.32,4.19 15.26,6.25 3.94,2.07 7.33,5.07 10.17,9.01 2.84,3.94 4.26,9.07 4.26,15.39z"/>
      <path class="fil3" d="M978.73 243.16c6.31,0 11.73,1.09 16.25,3.27 4.52,2.17 7.95,5.16 10.3,8.95 2.35,3.8 3.52,8.08 3.52,12.86 0,5.89 -1.51,10.62 -4.54,14.2 -3.03,3.59 -6.81,5.85 -11.33,6.78l0 0.64c11.69,3.76 17.53,11.05 17.53,21.88 0,5.21 -1.19,9.83 -3.58,13.89 -2.39,4.05 -5.86,7.2 -10.43,9.46 -4.56,2.27 -10.04,3.4 -16.44,3.4 -10.41,0 -18.66,-2.56 -24.76,-7.68 -6.1,-5.12 -9.4,-12.92 -9.91,-23.42l21.36 0c0.17,4.01 1.28,7.17 3.33,9.47 2.05,2.31 5.03,3.46 8.96,3.46 3.15,0 5.65,-0.94 7.48,-2.82 1.84,-1.87 2.75,-4.31 2.75,-7.29 0,-7.42 -5.37,-11.13 -16.12,-11.13l-4.09 0 0 -17.79 3.96 0c9.64,0.17 14.46,-3.28 14.46,-10.36 0,-3.07 -0.83,-5.44 -2.49,-7.1 -1.67,-1.67 -3.91,-2.5 -6.72,-2.5 -3.07,0 -5.5,1.05 -7.29,3.14 -1.8,2.09 -2.82,4.88 -3.07,8.38l-21.37 0c0.42,-9.56 3.41,-16.89 8.95,-22.01 5.55,-5.12 13.31,-7.68 23.29,-7.68z"/>
      <path id="_1_20" class="fil3" d="M1022.87 291.4c0,14.16 2.86,25.38 8.58,33.65 5.71,8.27 14.84,12.41 27.38,12.41 12.45,0 21.56,-4.14 27.32,-12.41 5.75,-8.27 8.63,-19.49 8.63,-33.65 0,-14.07 -2.88,-25.23 -8.63,-33.46 -5.76,-8.23 -14.87,-12.35 -27.32,-12.35 -12.54,0 -21.67,4.12 -27.38,12.35 -5.72,8.23 -8.58,19.39 -8.58,33.46zm50.16 0c0,8.1 -0.96,14.35 -2.88,18.74 -1.92,4.4 -5.69,6.59 -11.32,6.59 -5.72,0 -9.56,-2.19 -11.52,-6.59 -1.96,-4.39 -2.94,-10.64 -2.94,-18.74 0,-8.02 0.98,-14.2 2.94,-18.55 1.96,-4.35 5.8,-6.53 11.52,-6.53 5.63,0 9.4,2.16 11.32,6.46 1.92,4.31 2.88,10.52 2.88,18.62z"/>
      <path id="_2_21" class="fil3" d="M1105.27 291.4c0,14.16 2.86,25.38 8.58,33.65 5.71,8.27 14.84,12.41 27.38,12.41 12.45,0 21.56,-4.14 27.32,-12.41 5.75,-8.27 8.63,-19.49 8.63,-33.65 0,-14.07 -2.88,-25.23 -8.63,-33.46 -5.76,-8.23 -14.87,-12.35 -27.32,-12.35 -12.54,0 -21.67,4.12 -27.38,12.35 -5.72,8.23 -8.58,19.39 -8.58,33.46zm50.16 0c0,8.1 -0.96,14.35 -2.88,18.74 -1.92,4.4 -5.69,6.59 -11.32,6.59 -5.72,0 -9.56,-2.19 -11.52,-6.59 -1.96,-4.39 -2.94,-10.64 -2.94,-18.74 0,-8.02 0.98,-14.2 2.94,-18.55 1.96,-4.35 5.8,-6.53 11.52,-6.53 5.63,0 9.4,2.16 11.32,6.46 1.92,4.31 2.88,10.52 2.88,18.62z"/>
     </g>
     <g>
      <path class="fil4" d="M1003.53 413.84c-3.28,0 -5.81,-0.85 -7.59,-2.55 -1.78,-1.7 -2.67,-3.63 -2.67,-5.79 0,-2.16 0.68,-3.95 2.04,-5.37 1.36,-1.42 3.22,-2.13 5.58,-2.13 0.76,0 1.14,0.22 1.14,0.66 0,0.16 -0.24,0.48 -0.72,0.96 -0.48,0.48 -0.97,1.2 -1.47,2.16 -0.5,0.96 -0.75,2.16 -0.75,3.6 0,1.44 0.47,2.69 1.41,3.75 0.94,1.06 2.21,1.59 3.81,1.59 2.48,0 4.3,-1.02 5.46,-3.06 1.16,-2.04 1.74,-4.78 1.74,-8.22l0 -8.88c-0.92,1.76 -2.3,3.15 -4.14,4.17 -1.84,1.02 -4.02,1.53 -6.54,1.53 -2.52,0 -4.58,-0.87 -6.18,-2.61 -1.6,-1.74 -2.4,-4.19 -2.4,-7.35l0 -13.32c0,-0.88 -0.4,-1.32 -1.2,-1.32l-2.64 0 -0.54 -1.56c1.04,-1.04 2.31,-1.9 3.81,-2.58 1.5,-0.67 2.71,-1.01 3.63,-1.01 1.6,0 2.4,0.64 2.4,1.91l0 16.5c0,4.88 1.88,7.32 5.64,7.32 2.68,0 4.77,-1.01 6.27,-3.03 1.5,-2.02 2.25,-4.74 2.25,-8.16 0,-3.42 -0.14,-5.93 -0.42,-7.53 -0.28,-1.6 -0.92,-3.06 -1.92,-4.38l-0.72 -0.96 0.72 -0.9 7.31 -0.77 0 31.97c0,4.92 -1.18,8.71 -3.56,11.37 -2.38,2.66 -5.63,3.99 -9.75,3.99z"/>
      <path id="_1_22" class="fil4" d="M1046.66 374.3c-0.56,-1.36 -1.4,-2.47 -2.52,-3.33 -1.12,-0.86 -2.44,-1.29 -3.96,-1.29 -2.56,0 -4.63,1.17 -6.21,3.51 -1.58,2.34 -2.37,5.4 -2.37,9.18 0,3.78 0.74,6.79 2.22,9.03 1.48,2.24 3.48,3.36 6,3.36 2.52,0 4.57,-1.13 6.15,-3.39 1.58,-2.26 2.37,-5.03 2.37,-8.31 0,-3.28 -0.56,-6.2 -1.68,-8.76zm-6.66 23.7c-4.48,0 -8.04,-1.42 -10.68,-4.26 -2.64,-2.84 -3.96,-6.67 -3.96,-11.49 0,-4.82 1.32,-8.64 3.96,-11.46 2.64,-2.82 6.2,-4.22 10.68,-4.22 4.48,0 8.04,1.4 10.68,4.22 2.63,2.82 3.95,6.64 3.95,11.46 0,4.82 -1.32,8.65 -3.95,11.49 -2.64,2.84 -6.2,4.26 -10.68,4.26z"/>
      <path id="_2_23" class="fil4" d="M1076.41 369.86c-2.92,0 -5.18,1.09 -6.78,3.27 -1.6,2.18 -2.4,5.05 -2.4,8.61 0,3.56 0.65,6.1 1.95,7.62 1.3,1.52 2.93,2.28 4.89,2.28 3.36,0 6.1,-1.82 8.22,-5.46l0 -14.46c-1.84,-1.24 -3.8,-1.86 -5.88,-1.86zm-1.32 40.86c2.48,0 4.3,-1.02 5.46,-3.06 1.16,-2.04 1.74,-4.78 1.74,-8.22l0 -9.54c-3.04,4.24 -6.58,6.36 -10.62,6.36 -3,0 -5.54,-1.12 -7.62,-3.36 -2.08,-2.24 -3.12,-5.4 -3.12,-9.48 0,-5.2 1.4,-9.31 4.2,-12.33 2.8,-3.02 6.58,-4.52 11.34,-4.52 1.36,0 3.41,0.23 6.15,0.68 2.74,0.46 4.69,0.73 5.84,0.81l0.66 0.78 -0.72 1.08c-0.52,0.8 -0.78,1.58 -0.78,2.34l0 26.22c0,4.92 -1.18,8.71 -3.56,11.37 -2.38,2.66 -5.63,3.99 -9.75,3.99 -3.28,0 -5.81,-0.85 -7.59,-2.55 -1.78,-1.7 -2.67,-3.63 -2.67,-5.79 0,-2.16 0.68,-3.95 2.04,-5.37 1.36,-1.42 3.22,-2.13 5.58,-2.13 0.76,0 1.14,0.22 1.14,0.66 0,0.16 -0.24,0.48 -0.72,0.96 -0.48,0.48 -0.97,1.2 -1.47,2.16 -0.5,0.96 -0.75,2.16 -0.75,3.6 0,1.44 0.47,2.69 1.41,3.75 0.94,1.06 2.21,1.59 3.81,1.59z"/>
      <path id="_3_24" class="fil4" d="M1106.88 398c-3,0 -5.54,-1.27 -7.62,-3.81 -2.08,-2.54 -3.12,-6.27 -3.12,-11.19 0,-4.92 1.4,-8.89 4.2,-11.91 2.8,-3.02 6.58,-4.52 11.34,-4.52 1.36,0 3.41,0.23 6.15,0.68 2.74,0.46 4.69,0.73 5.84,0.81l0.66 0.78 -0.72 1.08c-0.51,0.8 -0.77,1.58 -0.77,2.34l0 19.62c0,1.24 0.6,1.86 1.79,1.86 0.96,0 1.96,-0.36 3,-1.08l1.14 1.56c-2.28,2.52 -4.5,3.78 -6.65,3.78 -1.64,0 -2.82,-0.5 -3.54,-1.5 -0.72,-1 -1.08,-2.62 -1.08,-4.86 -3.04,4.24 -6.58,6.36 -10.62,6.36zm4.74 -28.14c-2.92,0 -5.18,1.09 -6.78,3.27 -1.6,2.18 -2.4,5.2 -2.4,9.06 0,3.86 0.65,6.69 1.95,8.49 1.3,1.8 2.93,2.7 4.89,2.7 3.36,0 6.1,-1.82 8.22,-5.46l0 -16.2c-1.84,-1.24 -3.8,-1.86 -5.88,-1.86z"/>
      <path id="_4_25" class="fil5 str0" d="M1003.53 413.84c-3.28,0 -5.81,-0.85 -7.59,-2.55 -1.78,-1.7 -2.67,-3.63 -2.67,-5.79 0,-2.16 0.68,-3.95 2.04,-5.37 1.36,-1.42 3.22,-2.13 5.58,-2.13 0.76,0 1.14,0.22 1.14,0.66 0,0.16 -0.24,0.48 -0.72,0.96 -0.48,0.48 -0.97,1.2 -1.47,2.16 -0.5,0.96 -0.75,2.16 -0.75,3.6 0,1.44 0.47,2.69 1.41,3.75 0.94,1.06 2.21,1.59 3.81,1.59 2.48,0 4.3,-1.02 5.46,-3.06 1.16,-2.04 1.74,-4.78 1.74,-8.22l0 -8.88c-0.92,1.76 -2.3,3.15 -4.14,4.17 -1.84,1.02 -4.02,1.53 -6.54,1.53 -2.52,0 -4.58,-0.87 -6.18,-2.61 -1.6,-1.74 -2.4,-4.19 -2.4,-7.35l0 -13.32c0,-0.88 -0.4,-1.32 -1.2,-1.32l-2.64 0 -0.54 -1.56c1.04,-1.04 2.31,-1.9 3.81,-2.58 1.5,-0.67 2.71,-1.01 3.63,-1.01 1.6,0 2.4,0.64 2.4,1.91l0 16.5c0,4.88 1.88,7.32 5.64,7.32 2.68,0 4.77,-1.01 6.27,-3.03 1.5,-2.02 2.25,-4.74 2.25,-8.16 0,-3.42 -0.14,-5.93 -0.42,-7.53 -0.28,-1.6 -0.92,-3.06 -1.92,-4.38l-0.72 -0.96 0.72 -0.9 7.31 -0.77 0 31.97c0,4.92 -1.18,8.71 -3.56,11.37 -2.38,2.66 -5.63,3.99 -9.75,3.99z"/>
      <path id="_5_26" class="fil5 str0" d="M1046.66 374.3c-0.56,-1.36 -1.4,-2.47 -2.52,-3.33 -1.12,-0.86 -2.44,-1.29 -3.96,-1.29 -2.56,0 -4.63,1.17 -6.21,3.51 -1.58,2.34 -2.37,5.4 -2.37,9.18 0,3.78 0.74,6.79 2.22,9.03 1.48,2.24 3.48,3.36 6,3.36 2.52,0 4.57,-1.13 6.15,-3.39 1.58,-2.26 2.37,-5.03 2.37,-8.31 0,-3.28 -0.56,-6.2 -1.68,-8.76zm-6.66 23.7c-4.48,0 -8.04,-1.42 -10.68,-4.26 -2.64,-2.84 -3.96,-6.67 -3.96,-11.49 0,-4.82 1.32,-8.64 3.96,-11.46 2.64,-2.82 6.2,-4.22 10.68,-4.22 4.48,0 8.04,1.4 10.68,4.22 2.63,2.82 3.95,6.64 3.95,11.46 0,4.82 -1.32,8.65 -3.95,11.49 -2.64,2.84 -6.2,4.26 -10.68,4.26z"/>
      <path id="_6_27" class="fil5 str0" d="M1076.41 369.86c-2.92,0 -5.18,1.09 -6.78,3.27 -1.6,2.18 -2.4,5.05 -2.4,8.61 0,3.56 0.65,6.1 1.95,7.62 1.3,1.52 2.93,2.28 4.89,2.28 3.36,0 6.1,-1.82 8.22,-5.46l0 -14.46c-1.84,-1.24 -3.8,-1.86 -5.88,-1.86zm-1.32 40.86c2.48,0 4.3,-1.02 5.46,-3.06 1.16,-2.04 1.74,-4.78 1.74,-8.22l0 -9.54c-3.04,4.24 -6.58,6.36 -10.62,6.36 -3,0 -5.54,-1.12 -7.62,-3.36 -2.08,-2.24 -3.12,-5.4 -3.12,-9.48 0,-5.2 1.4,-9.31 4.2,-12.33 2.8,-3.02 6.58,-4.52 11.34,-4.52 1.36,0 3.41,0.23 6.15,0.68 2.74,0.46 4.69,0.73 5.84,0.81l0.66 0.78 -0.72 1.08c-0.52,0.8 -0.78,1.58 -0.78,2.34l0 26.22c0,4.92 -1.18,8.71 -3.56,11.37 -2.38,2.66 -5.63,3.99 -9.75,3.99 -3.28,0 -5.81,-0.85 -7.59,-2.55 -1.78,-1.7 -2.67,-3.63 -2.67,-5.79 0,-2.16 0.68,-3.95 2.04,-5.37 1.36,-1.42 3.22,-2.13 5.58,-2.13 0.76,0 1.14,0.22 1.14,0.66 0,0.16 -0.24,0.48 -0.72,0.96 -0.48,0.48 -0.97,1.2 -1.47,2.16 -0.5,0.96 -0.75,2.16 -0.75,3.6 0,1.44 0.47,2.69 1.41,3.75 0.94,1.06 2.21,1.59 3.81,1.59z"/>
      <path id="_7_28" class="fil5 str0" d="M1106.88 398c-3,0 -5.54,-1.27 -7.62,-3.81 -2.08,-2.54 -3.12,-6.27 -3.12,-11.19 0,-4.92 1.4,-8.89 4.2,-11.91 2.8,-3.02 6.58,-4.52 11.34,-4.52 1.36,0 3.41,0.23 6.15,0.68 2.74,0.46 4.69,0.73 5.84,0.81l0.66 0.78 -0.72 1.08c-0.51,0.8 -0.77,1.58 -0.77,2.34l0 19.62c0,1.24 0.6,1.86 1.79,1.86 0.96,0 1.96,-0.36 3,-1.08l1.14 1.56c-2.28,2.52 -4.5,3.78 -6.65,3.78 -1.64,0 -2.82,-0.5 -3.54,-1.5 -0.72,-1 -1.08,-2.62 -1.08,-4.86 -3.04,4.24 -6.58,6.36 -10.62,6.36zm4.74 -28.14c-2.92,0 -5.18,1.09 -6.78,3.27 -1.6,2.18 -2.4,5.2 -2.4,9.06 0,3.86 0.65,6.69 1.95,8.49 1.3,1.8 2.93,2.7 4.89,2.7 3.36,0 6.1,-1.82 8.22,-5.46l0 -16.2c-1.84,-1.24 -3.8,-1.86 -5.88,-1.86z"/>
      <path class="fil4" d="M987.04 442.95l-3.2 7.86c-0.07,0.17 -0.21,0.25 -0.4,0.25l-1.82 0c-0.31,0 -0.41,-0.13 -0.29,-0.4l10 -24.47c0.1,-0.22 0.25,-0.33 0.47,-0.33l1.89 0c0.25,0 0.42,0.11 0.51,0.33l9.96 24.47c0.13,0.27 0.04,0.4 -0.25,0.4l-1.89 0c-0.15,0 -0.27,-0.08 -0.36,-0.25l-3.2 -7.86 -11.42 0zm0.94 -2.33l9.57 0 -4.77 -11.78 -4.8 11.78z"/>
      <path id="_1_29" class="fil4" d="M1019.22 448.73c0.22,0 0.33,0.12 0.33,0.37l0 1.63c0,0.22 -0.11,0.33 -0.33,0.33l-11.27 0c-0.24,0 -0.36,-0.11 -0.36,-0.33l0 -24.54c0,-0.24 0.12,-0.36 0.36,-0.36l1.85 0c0.22,0 0.33,0.12 0.33,0.36l0 22.54 9.09 0z"/>
      <path id="_2_30" class="fil4" d="M1035.33 448.73c0.22,0 0.33,0.12 0.33,0.37l0 1.63c0,0.22 -0.11,0.33 -0.33,0.33l-11.27 0c-0.24,0 -0.36,-0.11 -0.36,-0.33l0 -24.54c0,-0.24 0.12,-0.36 0.36,-0.36l1.85 0c0.22,0 0.33,0.12 0.33,0.36l0 22.54 9.09 0z"/>
      <path id="_3_31" class="fil4" d="M1042.35 450.73c0,0.22 -0.11,0.33 -0.33,0.33l-1.89 0c-0.21,0 -0.32,-0.11 -0.32,-0.33l0 -24.54c0,-0.24 0.11,-0.36 0.32,-0.36l1.86 0c0.24,0 0.36,0.12 0.36,0.36l0 24.54z"/>
      <path id="_4_32" class="fil4" d="M1051.48 442.95l-3.2 7.86c-0.07,0.17 -0.21,0.25 -0.4,0.25l-1.82 0c-0.31,0 -0.41,-0.13 -0.29,-0.4l10 -24.47c0.1,-0.22 0.25,-0.33 0.47,-0.33l1.89 0c0.25,0 0.42,0.11 0.51,0.33l9.96 24.47c0.13,0.27 0.04,0.4 -0.25,0.4l-1.89 0c-0.15,0 -0.27,-0.08 -0.36,-0.25l-3.2 -7.86 -11.42 0zm0.94 -2.33l9.57 0 -4.77 -11.78 -4.8 11.78z"/>
      <path id="_5_33" class="fil4" d="M1089.84 425.83c0.22,0 0.33,0.12 0.33,0.36l0 24.51c0,0.24 -0.11,0.36 -0.33,0.36l-2.29 0c-0.17,0 -0.31,-0.07 -0.43,-0.22l-12.55 -20.91 0 20.77c0,0.24 -0.11,0.36 -0.33,0.36l-1.85 0c-0.24,0 -0.36,-0.12 -0.36,-0.36l0 -24.51c0,-0.24 0.12,-0.36 0.36,-0.36l2.33 0c0.19,0 0.32,0.08 0.4,0.25l12.51 20.91 0 -20.8c0,-0.24 0.12,-0.36 0.36,-0.36l1.85 0z"/>
      <path id="_6_34" class="fil4" d="M1116.79 448.08c-1.24,1.16 -2.64,2.01 -4.2,2.54 -1.56,0.54 -3.18,0.8 -4.86,0.8 -1.91,0 -3.66,-0.31 -5.25,-0.94 -1.59,-0.63 -2.94,-1.51 -4.07,-2.64 -1.13,-1.13 -2,-2.49 -2.62,-4.09 -0.62,-1.6 -0.93,-3.36 -0.93,-5.27 0,-2.16 0.37,-4.05 1.11,-5.67 0.74,-1.63 1.71,-2.98 2.91,-4.06 1.2,-1.08 2.58,-1.89 4.13,-2.43 1.55,-0.55 3.13,-0.82 4.72,-0.82 1.68,0 3.3,0.28 4.86,0.84 1.56,0.55 2.95,1.4 4.16,2.54 0.17,0.15 0.17,0.3 0,0.47l-1.23 1.17c-0.17,0.17 -0.34,0.17 -0.51,0 -0.37,-0.32 -0.78,-0.63 -1.24,-0.93 -0.46,-0.3 -0.99,-0.58 -1.58,-0.82 -0.59,-0.24 -1.26,-0.44 -1.98,-0.58 -0.73,-0.15 -1.55,-0.22 -2.48,-0.22 -1.52,0 -2.92,0.26 -4.19,0.76 -1.28,0.51 -2.37,1.23 -3.28,2.15 -0.91,0.92 -1.61,2.02 -2.11,3.31 -0.49,1.28 -0.74,2.71 -0.74,4.29 0,1.55 0.25,2.97 0.74,4.25 0.5,1.29 1.2,2.39 2.11,3.31 0.91,0.92 2,1.63 3.26,2.13 1.26,0.5 2.66,0.74 4.21,0.74 0.88,0 1.68,-0.07 2.4,-0.21 0.73,-0.15 1.39,-0.34 1.99,-0.59 0.59,-0.24 1.12,-0.51 1.6,-0.81 0.47,-0.31 0.89,-0.62 1.25,-0.93 0.07,-0.07 0.16,-0.1 0.27,-0.09 0.11,0.01 0.2,0.05 0.28,0.13l1.27 1.16c0.17,0.17 0.17,0.34 0,0.51z"/>
      <path id="_7_35" class="fil4" d="M1123.8 448.73l11.27 0c0.25,0 0.37,0.12 0.37,0.37l0 1.63c0,0.22 -0.11,0.33 -0.33,0.33l-13.49 0c-0.24,0 -0.36,-0.12 -0.36,-0.36l0 -24.51c0,-0.24 0.12,-0.36 0.36,-0.36l13.13 0c0.24,0 0.36,0.12 0.36,0.36l0 1.64c0,0.21 -0.12,0.32 -0.36,0.32l-10.95 0 0 8.88 9.2 0c0.24,0 0.36,0.12 0.36,0.36l0 1.6c0,0.24 -0.12,0.36 -0.36,0.36l-9.2 0 0 9.38z"/>
     </g>
    </g>
    <path class="fil3" d="M875.8 288.47l-31.27 4.17 -1.76 -13.29c-0.45,-3.33 -0.49,-5.8 -0.14,-7.39 0.36,-1.59 1.2,-2.94 2.52,-4.03 1.31,-1.11 2.9,-1.78 4.74,-2.03 2.35,-0.31 4.38,0.12 6.09,1.3 1.72,1.17 2.95,3.1 3.71,5.79 0.62,-1.48 1.34,-2.71 2.18,-3.73 0.83,-1.01 2.37,-2.44 4.59,-4.27l5.59 -4.63 1.01 7.55 -6.2 5.47c-2.21,1.95 -3.59,3.26 -4.15,3.94 -0.56,0.68 -0.9,1.38 -1.04,2.07 -0.15,0.7 -0.12,1.78 0.07,3.23l0.17 1.28 13.06 -1.75 0.83 6.32zm-18.88 -3.9l-0.62 -4.67c-0.41,-3.04 -0.79,-4.9 -1.15,-5.63 -0.36,-0.72 -0.87,-1.25 -1.56,-1.59 -0.68,-0.34 -1.49,-0.45 -2.43,-0.33 -1.06,0.14 -1.86,0.53 -2.43,1.18 -0.57,0.65 -0.88,1.5 -0.91,2.55 -0.01,0.52 0.17,2.06 0.5,4.62l0.67 4.92 7.93 -1.05z"/>
    <polygon id="_1_36" class="fil3" points="872.85,256.71 841.3,256.28 841.63,232.89 846.97,232.97 846.73,249.98 853.72,250.08 853.95,234.25 859.26,234.32 859.04,250.15 867.62,250.27 867.87,232.65 873.18,232.73 "/>
    <path id="_2_37" class="fil3" d="M865.75 210.38l-5.18 -1.17 3.03 -13.4 12.26 2.78c0.96,1.59 1.64,3.72 2.04,6.41 0.39,2.68 0.31,5.29 -0.26,7.83 -0.73,3.22 -2.05,5.87 -3.94,7.96 -1.89,2.08 -4.22,3.44 -7,4.07 -2.78,0.64 -5.65,0.62 -8.61,-0.04 -3.2,-0.73 -5.9,-2.05 -8.08,-3.95 -2.19,-1.91 -3.65,-4.31 -4.4,-7.2 -0.57,-2.21 -0.52,-4.78 0.14,-7.7 0.86,-3.83 2.35,-6.64 4.43,-8.42 2.08,-1.78 4.62,-2.67 7.58,-2.64l-0.25 6.43c-1.6,0.09 -2.98,0.64 -4.12,1.64 -1.16,1 -1.92,2.38 -2.33,4.18 -0.61,2.72 -0.25,5.07 1.11,7.06 1.36,2 3.74,3.37 7.12,4.14 3.65,0.82 6.57,0.64 8.77,-0.57 2.19,-1.21 3.58,-3.13 4.17,-5.77 0.3,-1.29 0.35,-2.66 0.13,-4.08 -0.22,-1.43 -0.58,-2.69 -1.1,-3.79l-3.9 -0.89 -1.61 7.12z"/>
    <polygon id="_3_38" class="fil3" points="882.76,194.44 852.78,184.61 854.76,178.56 884.76,188.38 "/>
    <path id="_4_39" class="fil3" d="M876.41 179.29l2.29 -5.8c2.03,0.62 3.74,0.64 5.12,0.07 1.39,-0.57 2.53,-1.71 3.42,-3.43 0.93,-1.83 1.25,-3.4 0.95,-4.73 -0.3,-1.32 -0.96,-2.25 -1.99,-2.78 -0.67,-0.33 -1.34,-0.43 -2,-0.28 -0.67,0.14 -1.42,0.62 -2.27,1.41 -0.56,0.55 -1.75,1.86 -3.55,3.92 -2.31,2.65 -4.34,4.31 -6.06,4.97 -2.44,0.93 -4.76,0.82 -6.98,-0.31 -1.43,-0.74 -2.56,-1.83 -3.38,-3.28 -0.84,-1.45 -1.18,-3.11 -1.05,-4.97 0.13,-1.86 0.75,-3.86 1.85,-6.03 1.82,-3.52 3.96,-5.77 6.4,-6.76 2.47,-0.99 5,-0.87 7.63,0.37l-2.66 5.8c-1.56,-0.51 -2.87,-0.51 -3.92,-0.04 -1.03,0.46 -1.96,1.5 -2.78,3.1 -0.85,1.65 -1.17,3.11 -0.97,4.39 0.13,0.82 0.55,1.43 1.28,1.8 0.67,0.33 1.38,0.36 2.14,0.03 0.96,-0.41 2.48,-1.83 4.54,-4.25 2.07,-2.43 3.8,-4.12 5.17,-5.08 1.38,-0.97 2.86,-1.51 4.45,-1.64 1.58,-0.12 3.26,0.27 5.04,1.18 1.62,0.81 2.88,2.04 3.84,3.65 0.93,1.62 1.34,3.42 1.18,5.4 -0.15,1.99 -0.85,4.19 -2.11,6.64 -1.83,3.55 -4.04,5.85 -6.65,6.92 -2.62,1.06 -5.6,0.97 -8.93,-0.27z"/>
    <polygon id="_5_40" class="fil3" points="904.38,150.55 883.09,135.24 877.62,142.84 873.28,139.72 887.94,119.37 892.27,122.49 886.82,130.07 908.1,145.39 "/>
    <polygon id="_6_41" class="fil3" points="916.04,134.56 893.34,112.67 909.58,95.83 913.43,99.53 901.61,111.78 906.63,116.64 917.64,105.25 921.46,108.93 910.46,120.33 916.64,126.3 928.88,113.61 932.72,117.3 "/>
    <path id="_7_42" class="fil3" d="M936.51 113.73l-19.44 -24.87 10.56 -8.26c2.66,-2.08 4.77,-3.36 6.33,-3.86 1.55,-0.5 3.13,-0.45 4.75,0.12 1.62,0.58 3,1.59 4.15,3.07 1.46,1.86 2.12,3.84 1.97,5.91 -0.15,2.07 -1.2,4.12 -3.12,6.14 1.57,-0.21 3.01,-0.22 4.32,-0.01 1.29,0.21 3.3,0.81 6.01,1.8l6.83 2.48 -6 4.69 -7.86 -2.57c-2.81,-0.93 -4.64,-1.46 -5.51,-1.59 -0.87,-0.13 -1.64,-0.08 -2.32,0.16 -0.67,0.22 -1.59,0.78 -2.74,1.68l-1.03 0.8 8.12 10.39 -5.02 3.92zm-6.19 -18.28l3.71 -2.9c2.41,-1.89 3.83,-3.15 4.27,-3.84 0.45,-0.67 0.64,-1.39 0.59,-2.15 -0.05,-0.76 -0.37,-1.51 -0.95,-2.26 -0.66,-0.84 -1.41,-1.34 -2.26,-1.5 -0.85,-0.17 -1.73,0 -2.65,0.5 -0.45,0.26 -1.7,1.19 -3.73,2.78l-3.92 3.07 4.94 6.3z"/>
    <polygon id="_8_43" class="fil3" points="962.49,94.82 947.76,66.88 968.47,55.96 970.96,60.68 955.88,68.63 959.15,74.82 973.17,67.43 975.65,72.13 961.64,79.54 965.65,87.13 981.25,78.9 983.74,83.61 "/>
    <path id="_9_44" class="fil3" d="M978.34 51.77l11 -3.77c2.49,-0.85 4.44,-1.3 5.88,-1.37 1.92,-0.09 3.73,0.32 5.43,1.21 1.7,0.88 3.21,2.17 4.51,3.86 1.3,1.68 2.43,3.92 3.39,6.72 0.85,2.45 1.26,4.67 1.25,6.65 0,2.43 -0.46,4.55 -1.38,6.37 -0.7,1.37 -1.84,2.65 -3.42,3.82 -1.19,0.88 -2.89,1.71 -5.12,2.47l-11.34 3.88 -10.2 -29.84zm7.74 2.98l6.76 19.77 4.51 -1.54c1.68,-0.58 2.86,-1.09 3.54,-1.53 0.89,-0.58 1.56,-1.27 2.01,-2.08 0.45,-0.8 0.64,-1.94 0.59,-3.42 -0.05,-1.47 -0.47,-3.36 -1.26,-5.67 -0.79,-2.31 -1.61,-4.01 -2.43,-5.11 -0.82,-1.09 -1.72,-1.85 -2.7,-2.31 -0.97,-0.43 -2.06,-0.58 -3.27,-0.44 -0.9,0.1 -2.59,0.57 -5.04,1.41l-2.71 0.92z"/>
    <polygon id="_10_45" class="fil3" points="1038.54,69.37 1037.47,56.13 1024.48,38.84 1031.92,38.24 1040.33,50.09 1046.59,37.05 1053.9,36.46 1043.81,55.66 1044.86,68.86 "/>
    <path id="_11_46" class="fil3" d="M1059.67 52.73c0.27,-3.2 0.97,-5.85 2.11,-7.95 0.84,-1.54 1.94,-2.89 3.28,-4.06 1.33,-1.18 2.77,-2 4.29,-2.5 2.03,-0.67 4.32,-0.9 6.88,-0.68 4.64,0.38 8.22,2.12 10.76,5.22 2.54,3.1 3.61,7.21 3.18,12.32 -0.41,5.09 -2.11,8.94 -5.12,11.57 -2.99,2.65 -6.79,3.77 -11.41,3.39 -4.68,-0.38 -8.27,-2.11 -10.8,-5.19 -2.52,-3.08 -3.57,-7.12 -3.17,-12.12zm6.56 0.32c-0.29,3.56 0.31,6.33 1.8,8.3 1.5,1.97 3.5,3.06 6.03,3.26 2.53,0.21 4.68,-0.52 6.46,-2.21 1.77,-1.69 2.81,-4.36 3.11,-8 0.3,-3.61 -0.28,-6.36 -1.71,-8.26 -1.44,-1.9 -3.46,-2.96 -6.08,-3.18 -2.61,-0.21 -4.79,0.51 -6.54,2.17 -1.74,1.67 -2.77,4.3 -3.07,7.92z"/>
    <path id="_12_47" class="fil3" d="M1111.77 64.56l1.59 -5.08 13.1 4.11 -3.75 12c-1.66,0.83 -3.85,1.34 -6.55,1.52 -2.72,0.18 -5.31,-0.12 -7.8,-0.89 -3.15,-0.99 -5.68,-2.51 -7.61,-4.57 -1.93,-2.05 -3.09,-4.48 -3.5,-7.32 -0.42,-2.82 -0.16,-5.68 0.73,-8.57 1,-3.14 2.53,-5.72 4.6,-7.75 2.08,-2.02 4.59,-3.29 7.53,-3.8 2.24,-0.39 4.8,-0.13 7.67,0.76 3.75,1.17 6.42,2.87 8.03,5.09 1.62,2.23 2.29,4.82 2.02,7.78l-6.39 -0.77c0.04,-1.61 -0.39,-3.03 -1.3,-4.25 -0.9,-1.22 -2.22,-2.11 -3.98,-2.65 -2.66,-0.83 -5.04,-0.65 -7.12,0.55 -2.11,1.19 -3.67,3.44 -4.71,6.76 -1.12,3.56 -1.16,6.49 -0.13,8.78 1.03,2.29 2.82,3.83 5.4,4.63 1.28,0.41 2.64,0.56 4.07,0.46 1.43,-0.11 2.73,-0.36 3.86,-0.79l1.2 -3.83 -6.96 -2.17z"/>
    <path id="_13_48" class="fil3" d="M1152.56 93.12l-6.31 -2.87 0.47 -7.67 -11.47 -5.23 -5.35 5.44 -6.14 -2.8 24.25 -23.6 6.14 2.79 -1.59 33.94zm-5.49 -16.22l0.89 -12.46 -8.72 8.89 7.83 3.57z"/>
    <polygon id="_14_49" class="fil3" points="1169.9,105.8 1186.16,85.26 1178.83,79.44 1182.14,75.26 1201.8,90.82 1198.48,95 1191.16,89.21 1174.89,109.75 "/>
    <polygon id="_15_50" class="fil3" points="1185.23,118.47 1208.03,96.69 1224.18,113.6 1220.33,117.28 1208.57,104.98 1203.52,109.81 1214.46,121.26 1210.62,124.93 1199.68,113.48 1193.47,119.41 1205.65,132.14 1201.8,135.82 "/>
    <path id="_16_51" class="fil3" d="M1220.71 163.95l-3.74 -5.82 4.54 -6.19 -6.82 -10.62 -7.43 1.69 -3.65 -5.69 33.18 -6.71 3.64 5.67 -19.72 27.67zm4.17 -16.6l7.5 -9.99 -12.15 2.75 4.65 7.24z"/>
    <path id="_17_52" class="fil3" d="M1241.66 180.2l0.79 6.43c-3.53,0.58 -6.51,0.21 -8.94,-1.09 -2.44,-1.31 -4.36,-3.49 -5.78,-6.57 -1.74,-3.81 -1.88,-7.53 -0.41,-11.19 1.47,-3.64 4.47,-6.5 8.99,-8.57 4.77,-2.19 9.03,-2.66 12.82,-1.41 3.77,1.26 6.58,3.89 8.42,7.9 1.61,3.52 1.88,6.83 0.81,9.99 -0.63,1.86 -1.94,3.64 -3.93,5.35l-4.01 -5.1c1.33,-1.03 2.18,-2.27 2.55,-3.73 0.37,-1.47 0.2,-2.99 -0.51,-4.52 -0.97,-2.13 -2.53,-3.5 -4.66,-4.13 -2.13,-0.63 -4.9,-0.15 -8.32,1.42 -3.63,1.66 -5.91,3.5 -6.86,5.52 -0.93,2 -0.93,4.05 0.03,6.14 0.71,1.54 1.81,2.63 3.29,3.29 1.49,0.67 3.39,0.75 5.72,0.27z"/>
    <polygon id="_18_53" class="fil3" points="1235.4,196.04 1266.15,189 1267.57,195.21 1255.47,197.98 1258.25,210.15 1270.36,207.37 1271.77,213.59 1241.02,220.61 1239.6,214.41 1253.05,211.33 1250.27,199.17 1236.82,202.25 "/>
    <polygon id="_19_54" class="fil3" points="1242.09,226.96 1273.55,224.42 1275.43,247.74 1270.1,248.17 1268.74,231.2 1261.76,231.76 1263.04,247.56 1257.74,247.98 1256.47,232.19 1247.9,232.89 1249.32,250.46 1244.02,250.88 "/>
    <path id="_20_55" class="fil3" d="M1244.08 256.53l31.42 2.59 -1.1 13.35c-0.28,3.36 -0.76,5.77 -1.45,7.24 -0.69,1.49 -1.8,2.63 -3.31,3.42 -1.52,0.79 -3.2,1.12 -5.07,0.96 -2.35,-0.2 -4.24,-1.04 -5.67,-2.56 -1.42,-1.52 -2.21,-3.66 -2.39,-6.45 -0.91,1.3 -1.88,2.36 -2.92,3.18 -1.02,0.81 -2.83,1.88 -5.39,3.19l-6.45 3.33 0.62 -7.59 7.22 -4.02c2.58,-1.43 4.21,-2.42 4.9,-2.97 0.67,-0.54 1.17,-1.14 1.46,-1.79 0.29,-0.65 0.5,-1.71 0.62,-3.17l0.1 -1.28 -13.12 -1.09 0.53 -6.34zm17.61 7.84l-0.39 4.69c-0.25,3.05 -0.28,4.95 -0.09,5.74 0.21,0.77 0.6,1.41 1.18,1.88 0.6,0.49 1.37,0.76 2.32,0.84 1.05,0.09 1.93,-0.12 2.62,-0.64 0.7,-0.5 1.18,-1.27 1.44,-2.28 0.11,-0.51 0.27,-2.05 0.49,-4.62l0.4 -4.95 -7.97 -0.66z"/>
   </g>
   <g>
    <path class="fil1" d="M537.7 9.81c67.4,0 128.45,27.34 172.64,71.52 44.2,44.21 71.54,105.26 71.54,172.66 0,67.4 -27.34,128.45 -71.52,172.64 -44.21,44.2 -105.26,71.54 -172.66,71.54 -67.4,0 -128.45,-27.34 -172.64,-71.52 -44.2,-44.21 -71.54,-105.26 -71.54,-172.66 0,-67.4 27.34,-128.45 71.52,-172.64 44.21,-44.2 105.26,-71.54 172.66,-71.54zm165.62 78.56c-42.37,-42.38 -100.93,-68.6 -165.62,-68.6 -64.69,0 -123.25,26.22 -165.61,68.59 -42.39,42.38 -68.61,100.94 -68.61,165.63 0,64.69 26.22,123.25 68.59,165.61 42.38,42.39 100.94,68.61 165.63,68.61 64.69,0 123.25,-26.22 165.61,-68.59 42.39,-42.38 68.61,-100.94 68.61,-165.63 0,-64.69 -26.22,-123.25 -68.6,-165.62z"/>
    <g>
     <g>
      <path class="fil2" d="M545.25 280.54c-0.07,0 -28.65,-2.29 -33.37,16.77 -2.18,8.81 3.33,24.3 13.45,39.24 6.96,10.27 16.12,20.08 26.44,27.17 9.94,6.84 21.02,11.09 32.15,10.65 10.57,-0.42 21.55,-5.16 32.17,-16.02 22.34,-22.81 53.59,-43.13 71.44,-53.86 -6.66,-2.29 -12.67,-5.17 -18.03,-8.61 -9.43,-6.04 -16.94,-13.8 -22.67,-22.99l10.95 -6.82c4.72,7.6 10.93,14.01 18.68,18.97 7.89,5.06 17.54,8.74 29.05,10.8l19.04 3.45 -17.3 8.64c-0.13,0.05 -50.28,27.1 -81.97,59.47 -13.14,13.42 -27.13,19.31 -40.85,19.86 -14.17,0.57 -27.86,-4.59 -39.95,-12.89 -11.68,-8 -21.98,-19.08 -29.8,-30.61 -12.05,-17.78 -18.37,-37.28 -15.33,-49.53 7.49,-30.26 45.81,-26.62 45.9,-26.62l0 12.93z"/>
      <path class="fil2" d="M564.83 246.72c0,0.08 -1.43,28.47 17.87,32.57 8.89,1.89 24.2,-4.13 38.77,-14.74 10.07,-7.34 19.61,-16.82 26.31,-27.31 6.47,-10.13 10.35,-21.31 9.54,-32.48 -0.77,-10.57 -5.86,-21.39 -17.04,-31.62 -23.75,-21.75 -45.02,-52.26 -56.23,-69.58 -2.05,6.71 -4.74,12.77 -7.98,18.24 -5.71,9.63 -13.22,17.39 -22.27,23.42l-7.17 -10.69c7.45,-4.98 13.66,-11.37 18.34,-19.28 4.76,-8.04 8.13,-17.82 9.83,-29.44l2.55 -17.36 9.32 14.88c0.07,0.13 29.04,49.86 62.29,80.32 13.91,12.75 20.24,26.52 21.25,40.19 1.01,14.1 -3.7,27.98 -11.59,40.32 -7.65,11.97 -18.34,22.67 -29.57,30.81 -17.39,12.64 -36.69,19.59 -49.03,16.96 -30.37,-6.47 -28.12,-45.12 -28.12,-45.21l12.93 0z"/>
      <path class="fil2" d="M530.59 228.05c0.07,0 28.29,0.58 31.76,-18.92 1.62,-8.95 -4.9,-24.02 -16,-38.24 -7.61,-9.78 -17.39,-19.01 -28.19,-25.4 -10.37,-6.15 -21.7,-9.68 -32.81,-8.51 -10.48,1.12 -21.13,6.57 -31,18.11 -20.82,24.33 -50.64,46.65 -67.69,58.49 6.79,1.85 12.95,4.32 18.51,7.38 9.78,5.38 17.76,12.63 24.12,21.48l-10.44 7.5c-5.18,-7.21 -11.79,-13.21 -19.9,-17.66 -8.22,-4.53 -18.11,-7.57 -29.72,-8.87l-18.38 -2.06 15.69 -9.82c0.13,-0.07 48.57,-30.46 78,-64.83 12.23,-14.3 25.81,-21.07 39.45,-22.54 14.14,-1.48 28.14,2.77 40.72,10.24 12.21,7.23 23.22,17.59 31.79,28.58 13.2,16.91 20.78,35.96 18.54,48.39 -5.42,30.52 -44.36,29.6 -44.45,29.6l0 -12.92z"/>
      <path class="fil2" d="M512.3 261.33c0,-0.07 1.5,-28.49 -17.76,-32.62 -8.88,-1.93 -24.21,4.08 -38.8,14.64 -10.07,7.29 -19.64,16.76 -26.38,27.25 -6.5,10.12 -10.42,21.31 -9.63,32.46 0.71,10.54 5.8,21.38 16.97,31.65 23.64,21.76 44.86,52.35 56.03,69.71 2.08,-6.7 4.77,-12.76 8.03,-18.24 5.77,-9.61 13.3,-17.36 22.34,-23.36l7.1 10.76c-7.43,4.95 -13.64,11.32 -18.38,19.23 -4.78,8.02 -8.16,17.78 -9.89,29.38l-2.56 17.34 -9.3 -14.86c-0.07,-0.13 -28.89,-49.88 -62.12,-80.47 -13.82,-12.71 -20.16,-26.55 -21.11,-40.23 -0.99,-14.15 3.75,-27.97 11.68,-40.33 7.67,-11.96 18.4,-22.59 29.64,-30.72 17.41,-12.62 36.73,-19.52 49.07,-16.85 30.37,6.56 27.99,45.17 27.99,45.26l-12.92 0z"/>
     </g>
     <g>
      <path class="fil2" d="M571.54 235.15c15.77,-24.4 46.16,-19.7 44.34,16.58 -10.52,-17.98 -25.81,-21.94 -44.34,-16.58z"/>
      <path class="fil2" d="M554.12 288.96c23.59,16.99 17.37,47.1 -18.78,43.46 18.48,-9.61 23.21,-24.67 18.78,-43.46z"/>
      <path class="fil2" d="M502.38 271.37c-16.51,23.89 -46.72,18.28 -43.81,-17.92 9.96,18.27 25.13,22.7 43.81,17.92z"/>
      <path class="fil2" d="M516.96 220.41c-25.13,-14.56 -21.91,-45.15 14.41,-45.08 -17.44,11.38 -20.65,26.83 -14.41,45.08z"/>
     </g>
    </g>
    <g>
     <g>
      <path class="fil3" d="M462.45 236.39l-21.03 -36.7 -5.36 0 0 36.7 -23.5 0 0 -97.17 40.13 0c7.7,0 14.2,1.33 19.52,3.99 5.31,2.65 9.3,6.3 11.96,10.92 2.65,4.63 3.98,9.92 3.98,15.88 0,7.05 -1.95,13.05 -5.84,18 -3.89,4.95 -9.55,8.34 -16.97,10.17l23.09 38.21 -25.98 0zm-26.39 -52.78l14.57 0c4.67,0 8.11,-1.03 10.31,-3.09 2.2,-2.06 3.3,-5.11 3.3,-9.14 0,-3.85 -1.13,-6.87 -3.37,-9.07 -2.25,-2.2 -5.66,-3.3 -10.24,-3.3l-14.57 0 0 24.6z"/>
      <polygon id="_1_56" class="fil3" points="583.94,139.22 550.27,204.09 550.27,236.39 526.63,236.39 526.63,204.09 492.96,139.22 519.9,139.22 538.59,178.8 557.28,139.22 "/>
      <polygon id="_2_57" class="fil3" points="662.84,139.22 662.84,157.91 636.45,157.91 636.45,236.39 612.81,236.39 612.81,157.91 586.7,157.91 586.7,139.22 "/>
      <path class="fil3" d="M423.82 320.19c27.13,-19.36 40.69,-34.76 40.69,-46.19 0,-7 -3.03,-10.49 -9.09,-10.49 -3.41,0 -5.9,1.19 -7.48,3.58 -1.58,2.39 -2.45,6.1 -2.62,11.13l-21.37 0c0.51,-11 3.84,-19.28 9.98,-24.82 6.14,-5.55 13.9,-8.32 23.29,-8.32 9.8,0 17.2,2.48 22.19,7.42 4.99,4.95 7.49,11.39 7.49,19.32 0,8.79 -3.37,17.38 -10.11,25.79 -6.74,8.4 -14.8,15.5 -24.18,21.3l35.7 0 0 17.66 -64.49 0 0 -16.38z"/>
      <path id="_1_58" class="fil3" d="M497.26 291.4c0,14.16 2.86,25.38 8.58,33.65 5.71,8.27 14.84,12.41 27.38,12.41 12.45,0 21.56,-4.14 27.32,-12.41 5.75,-8.27 8.63,-19.49 8.63,-33.65 0,-14.07 -2.88,-25.23 -8.63,-33.46 -5.76,-8.23 -14.87,-12.35 -27.32,-12.35 -12.54,0 -21.67,4.12 -27.38,12.35 -5.72,8.23 -8.58,19.39 -8.58,33.46zm50.16 0c0,8.1 -0.96,14.35 -2.88,18.74 -1.92,4.4 -5.69,6.59 -11.32,6.59 -5.72,0 -9.56,-2.19 -11.52,-6.59 -1.96,-4.39 -2.94,-10.64 -2.94,-18.74 0,-8.02 0.98,-14.2 2.94,-18.55 1.96,-4.35 5.8,-6.53 11.52,-6.53 5.63,0 9.4,2.16 11.32,6.46 1.92,4.31 2.88,10.52 2.88,18.62z"/>
      <path id="_2_59" class="fil3" d="M579.66 291.4c0,14.16 2.86,25.38 8.58,33.65 5.71,8.27 14.84,12.41 27.38,12.41 12.45,0 21.56,-4.14 27.32,-12.41 5.75,-8.27 8.63,-19.49 8.63,-33.65 0,-14.07 -2.88,-25.23 -8.63,-33.46 -5.76,-8.23 -14.87,-12.35 -27.32,-12.35 -12.54,0 -21.67,4.12 -27.38,12.35 -5.72,8.23 -8.58,19.39 -8.58,33.46zm50.16 0c0,8.1 -0.96,14.35 -2.88,18.74 -1.92,4.4 -5.69,6.59 -11.32,6.59 -5.72,0 -9.56,-2.19 -11.52,-6.59 -1.96,-4.39 -2.94,-10.64 -2.94,-18.74 0,-8.02 0.98,-14.2 2.94,-18.55 1.96,-4.35 5.8,-6.53 11.52,-6.53 5.63,0 9.4,2.16 11.32,6.46 1.92,4.31 2.88,10.52 2.88,18.62z"/>
     </g>
     <g>
      <path class="fil4" d="M482.91 413.84c-3.28,0 -5.81,-0.85 -7.59,-2.55 -1.78,-1.7 -2.67,-3.63 -2.67,-5.79 0,-2.16 0.68,-3.95 2.04,-5.37 1.36,-1.42 3.22,-2.13 5.58,-2.13 0.76,0 1.14,0.22 1.14,0.66 0,0.16 -0.24,0.48 -0.72,0.96 -0.48,0.48 -0.97,1.2 -1.47,2.16 -0.5,0.96 -0.75,2.16 -0.75,3.6 0,1.44 0.47,2.69 1.41,3.75 0.94,1.06 2.21,1.59 3.81,1.59 2.48,0 4.3,-1.02 5.46,-3.06 1.16,-2.04 1.74,-4.78 1.74,-8.22l0 -8.88c-0.92,1.76 -2.3,3.15 -4.14,4.17 -1.84,1.02 -4.02,1.53 -6.54,1.53 -2.52,0 -4.58,-0.87 -6.18,-2.61 -1.6,-1.74 -2.4,-4.19 -2.4,-7.35l0 -13.32c0,-0.88 -0.4,-1.32 -1.2,-1.32l-2.64 0 -0.54 -1.56c1.04,-1.04 2.31,-1.9 3.81,-2.58 1.5,-0.67 2.71,-1.01 3.63,-1.01 1.6,0 2.4,0.64 2.4,1.91l0 16.5c0,4.88 1.88,7.32 5.64,7.32 2.68,0 4.77,-1.01 6.27,-3.03 1.5,-2.02 2.25,-4.74 2.25,-8.16 0,-3.42 -0.14,-5.93 -0.42,-7.53 -0.28,-1.6 -0.92,-3.06 -1.92,-4.38l-0.72 -0.96 0.72 -0.9 7.31 -0.77 0 31.97c0,4.92 -1.18,8.71 -3.56,11.37 -2.38,2.66 -5.63,3.99 -9.75,3.99z"/>
      <path id="_1_60" class="fil4" d="M526.04 374.3c-0.56,-1.36 -1.4,-2.47 -2.52,-3.33 -1.12,-0.86 -2.44,-1.29 -3.96,-1.29 -2.56,0 -4.63,1.17 -6.21,3.51 -1.58,2.34 -2.37,5.4 -2.37,9.18 0,3.78 0.74,6.79 2.22,9.03 1.48,2.24 3.48,3.36 6,3.36 2.52,0 4.57,-1.13 6.15,-3.39 1.58,-2.26 2.37,-5.03 2.37,-8.31 0,-3.28 -0.56,-6.2 -1.68,-8.76zm-6.66 23.7c-4.48,0 -8.04,-1.42 -10.68,-4.26 -2.64,-2.84 -3.96,-6.67 -3.96,-11.49 0,-4.82 1.32,-8.64 3.96,-11.46 2.64,-2.82 6.2,-4.22 10.68,-4.22 4.48,0 8.04,1.4 10.68,4.22 2.63,2.82 3.95,6.64 3.95,11.46 0,4.82 -1.32,8.65 -3.95,11.49 -2.64,2.84 -6.2,4.26 -10.68,4.26z"/>
      <path id="_2_61" class="fil4" d="M555.79 369.86c-2.92,0 -5.18,1.09 -6.78,3.27 -1.6,2.18 -2.4,5.05 -2.4,8.61 0,3.56 0.65,6.1 1.95,7.62 1.3,1.52 2.93,2.28 4.89,2.28 3.36,0 6.1,-1.82 8.22,-5.46l0 -14.46c-1.84,-1.24 -3.8,-1.86 -5.88,-1.86zm-1.32 40.86c2.48,0 4.3,-1.02 5.46,-3.06 1.16,-2.04 1.74,-4.78 1.74,-8.22l0 -9.54c-3.04,4.24 -6.58,6.36 -10.62,6.36 -3,0 -5.54,-1.12 -7.62,-3.36 -2.08,-2.24 -3.12,-5.4 -3.12,-9.48 0,-5.2 1.4,-9.31 4.2,-12.33 2.8,-3.02 6.58,-4.52 11.34,-4.52 1.36,0 3.41,0.23 6.15,0.68 2.74,0.46 4.69,0.73 5.84,0.81l0.66 0.78 -0.72 1.08c-0.52,0.8 -0.78,1.58 -0.78,2.34l0 26.22c0,4.92 -1.18,8.71 -3.56,11.37 -2.38,2.66 -5.63,3.99 -9.75,3.99 -3.28,0 -5.81,-0.85 -7.59,-2.55 -1.78,-1.7 -2.67,-3.63 -2.67,-5.79 0,-2.16 0.68,-3.95 2.04,-5.37 1.36,-1.42 3.22,-2.13 5.58,-2.13 0.76,0 1.14,0.22 1.14,0.66 0,0.16 -0.24,0.48 -0.72,0.96 -0.48,0.48 -0.97,1.2 -1.47,2.16 -0.5,0.96 -0.75,2.16 -0.75,3.6 0,1.44 0.47,2.69 1.41,3.75 0.94,1.06 2.21,1.59 3.81,1.59z"/>
      <path id="_3_62" class="fil4" d="M586.26 398c-3,0 -5.54,-1.27 -7.62,-3.81 -2.08,-2.54 -3.12,-6.27 -3.12,-11.19 0,-4.92 1.4,-8.89 4.2,-11.91 2.8,-3.02 6.58,-4.52 11.34,-4.52 1.36,0 3.41,0.23 6.15,0.68 2.74,0.46 4.69,0.73 5.84,0.81l0.66 0.78 -0.72 1.08c-0.51,0.8 -0.77,1.58 -0.77,2.34l0 19.62c0,1.24 0.6,1.86 1.79,1.86 0.96,0 1.96,-0.36 3,-1.08l1.14 1.56c-2.28,2.52 -4.5,3.78 -6.65,3.78 -1.64,0 -2.82,-0.5 -3.54,-1.5 -0.72,-1 -1.08,-2.62 -1.08,-4.86 -3.04,4.24 -6.58,6.36 -10.62,6.36zm4.74 -28.14c-2.92,0 -5.18,1.09 -6.78,3.27 -1.6,2.18 -2.4,5.2 -2.4,9.06 0,3.86 0.65,6.69 1.95,8.49 1.3,1.8 2.93,2.7 4.89,2.7 3.36,0 6.1,-1.82 8.22,-5.46l0 -16.2c-1.84,-1.24 -3.8,-1.86 -5.88,-1.86z"/>
      <path id="_4_63" class="fil5 str0" d="M482.91 413.84c-3.28,0 -5.81,-0.85 -7.59,-2.55 -1.78,-1.7 -2.67,-3.63 -2.67,-5.79 0,-2.16 0.68,-3.95 2.04,-5.37 1.36,-1.42 3.22,-2.13 5.58,-2.13 0.76,0 1.14,0.22 1.14,0.66 0,0.16 -0.24,0.48 -0.72,0.96 -0.48,0.48 -0.97,1.2 -1.47,2.16 -0.5,0.96 -0.75,2.16 -0.75,3.6 0,1.44 0.47,2.69 1.41,3.75 0.94,1.06 2.21,1.59 3.81,1.59 2.48,0 4.3,-1.02 5.46,-3.06 1.16,-2.04 1.74,-4.78 1.74,-8.22l0 -8.88c-0.92,1.76 -2.3,3.15 -4.14,4.17 -1.84,1.02 -4.02,1.53 -6.54,1.53 -2.52,0 -4.58,-0.87 -6.18,-2.61 -1.6,-1.74 -2.4,-4.19 -2.4,-7.35l0 -13.32c0,-0.88 -0.4,-1.32 -1.2,-1.32l-2.64 0 -0.54 -1.56c1.04,-1.04 2.31,-1.9 3.81,-2.58 1.5,-0.67 2.71,-1.01 3.63,-1.01 1.6,0 2.4,0.64 2.4,1.91l0 16.5c0,4.88 1.88,7.32 5.64,7.32 2.68,0 4.77,-1.01 6.27,-3.03 1.5,-2.02 2.25,-4.74 2.25,-8.16 0,-3.42 -0.14,-5.93 -0.42,-7.53 -0.28,-1.6 -0.92,-3.06 -1.92,-4.38l-0.72 -0.96 0.72 -0.9 7.31 -0.77 0 31.97c0,4.92 -1.18,8.71 -3.56,11.37 -2.38,2.66 -5.63,3.99 -9.75,3.99z"/>
      <path id="_5_64" class="fil5 str0" d="M526.04 374.3c-0.56,-1.36 -1.4,-2.47 -2.52,-3.33 -1.12,-0.86 -2.44,-1.29 -3.96,-1.29 -2.56,0 -4.63,1.17 -6.21,3.51 -1.58,2.34 -2.37,5.4 -2.37,9.18 0,3.78 0.74,6.79 2.22,9.03 1.48,2.24 3.48,3.36 6,3.36 2.52,0 4.57,-1.13 6.15,-3.39 1.58,-2.26 2.37,-5.03 2.37,-8.31 0,-3.28 -0.56,-6.2 -1.68,-8.76zm-6.66 23.7c-4.48,0 -8.04,-1.42 -10.68,-4.26 -2.64,-2.84 -3.96,-6.67 -3.96,-11.49 0,-4.82 1.32,-8.64 3.96,-11.46 2.64,-2.82 6.2,-4.22 10.68,-4.22 4.48,0 8.04,1.4 10.68,4.22 2.63,2.82 3.95,6.64 3.95,11.46 0,4.82 -1.32,8.65 -3.95,11.49 -2.64,2.84 -6.2,4.26 -10.68,4.26z"/>
      <path id="_6_65" class="fil5 str0" d="M555.79 369.86c-2.92,0 -5.18,1.09 -6.78,3.27 -1.6,2.18 -2.4,5.05 -2.4,8.61 0,3.56 0.65,6.1 1.95,7.62 1.3,1.52 2.93,2.28 4.89,2.28 3.36,0 6.1,-1.82 8.22,-5.46l0 -14.46c-1.84,-1.24 -3.8,-1.86 -5.88,-1.86zm-1.32 40.86c2.48,0 4.3,-1.02 5.46,-3.06 1.16,-2.04 1.74,-4.78 1.74,-8.22l0 -9.54c-3.04,4.24 -6.58,6.36 -10.62,6.36 -3,0 -5.54,-1.12 -7.62,-3.36 -2.08,-2.24 -3.12,-5.4 -3.12,-9.48 0,-5.2 1.4,-9.31 4.2,-12.33 2.8,-3.02 6.58,-4.52 11.34,-4.52 1.36,0 3.41,0.23 6.15,0.68 2.74,0.46 4.69,0.73 5.84,0.81l0.66 0.78 -0.72 1.08c-0.52,0.8 -0.78,1.58 -0.78,2.34l0 26.22c0,4.92 -1.18,8.71 -3.56,11.37 -2.38,2.66 -5.63,3.99 -9.75,3.99 -3.28,0 -5.81,-0.85 -7.59,-2.55 -1.78,-1.7 -2.67,-3.63 -2.67,-5.79 0,-2.16 0.68,-3.95 2.04,-5.37 1.36,-1.42 3.22,-2.13 5.58,-2.13 0.76,0 1.14,0.22 1.14,0.66 0,0.16 -0.24,0.48 -0.72,0.96 -0.48,0.48 -0.97,1.2 -1.47,2.16 -0.5,0.96 -0.75,2.16 -0.75,3.6 0,1.44 0.47,2.69 1.41,3.75 0.94,1.06 2.21,1.59 3.81,1.59z"/>
      <path id="_7_66" class="fil5 str0" d="M586.26 398c-3,0 -5.54,-1.27 -7.62,-3.81 -2.08,-2.54 -3.12,-6.27 -3.12,-11.19 0,-4.92 1.4,-8.89 4.2,-11.91 2.8,-3.02 6.58,-4.52 11.34,-4.52 1.36,0 3.41,0.23 6.15,0.68 2.74,0.46 4.69,0.73 5.84,0.81l0.66 0.78 -0.72 1.08c-0.51,0.8 -0.77,1.58 -0.77,2.34l0 19.62c0,1.24 0.6,1.86 1.79,1.86 0.96,0 1.96,-0.36 3,-1.08l1.14 1.56c-2.28,2.52 -4.5,3.78 -6.65,3.78 -1.64,0 -2.82,-0.5 -3.54,-1.5 -0.72,-1 -1.08,-2.62 -1.08,-4.86 -3.04,4.24 -6.58,6.36 -10.62,6.36zm4.74 -28.14c-2.92,0 -5.18,1.09 -6.78,3.27 -1.6,2.18 -2.4,5.2 -2.4,9.06 0,3.86 0.65,6.69 1.95,8.49 1.3,1.8 2.93,2.7 4.89,2.7 3.36,0 6.1,-1.82 8.22,-5.46l0 -16.2c-1.84,-1.24 -3.8,-1.86 -5.88,-1.86z"/>
      <path class="fil4" d="M466.42 442.95l-3.2 7.86c-0.07,0.17 -0.21,0.25 -0.4,0.25l-1.82 0c-0.31,0 -0.41,-0.13 -0.29,-0.4l10 -24.47c0.1,-0.22 0.25,-0.33 0.47,-0.33l1.89 0c0.25,0 0.42,0.11 0.51,0.33l9.96 24.47c0.13,0.27 0.04,0.4 -0.25,0.4l-1.89 0c-0.15,0 -0.27,-0.08 -0.36,-0.25l-3.2 -7.86 -11.42 0zm0.94 -2.33l9.57 0 -4.77 -11.78 -4.8 11.78z"/>
      <path id="_1_67" class="fil4" d="M498.6 448.73c0.22,0 0.33,0.12 0.33,0.37l0 1.63c0,0.22 -0.11,0.33 -0.33,0.33l-11.27 0c-0.24,0 -0.36,-0.11 -0.36,-0.33l0 -24.54c0,-0.24 0.12,-0.36 0.36,-0.36l1.85 0c0.22,0 0.33,0.12 0.33,0.36l0 22.54 9.09 0z"/>
      <path id="_2_68" class="fil4" d="M514.71 448.73c0.22,0 0.33,0.12 0.33,0.37l0 1.63c0,0.22 -0.11,0.33 -0.33,0.33l-11.27 0c-0.24,0 -0.36,-0.11 -0.36,-0.33l0 -24.54c0,-0.24 0.12,-0.36 0.36,-0.36l1.85 0c0.22,0 0.33,0.12 0.33,0.36l0 22.54 9.09 0z"/>
      <path id="_3_69" class="fil4" d="M521.73 450.73c0,0.22 -0.11,0.33 -0.33,0.33l-1.89 0c-0.21,0 -0.32,-0.11 -0.32,-0.33l0 -24.54c0,-0.24 0.11,-0.36 0.32,-0.36l1.86 0c0.24,0 0.36,0.12 0.36,0.36l0 24.54z"/>
      <path id="_4_70" class="fil4" d="M530.86 442.95l-3.2 7.86c-0.07,0.17 -0.21,0.25 -0.4,0.25l-1.82 0c-0.31,0 -0.41,-0.13 -0.29,-0.4l10 -24.47c0.1,-0.22 0.25,-0.33 0.47,-0.33l1.89 0c0.25,0 0.42,0.11 0.51,0.33l9.96 24.47c0.13,0.27 0.04,0.4 -0.25,0.4l-1.89 0c-0.15,0 -0.27,-0.08 -0.36,-0.25l-3.2 -7.86 -11.42 0zm0.94 -2.33l9.57 0 -4.77 -11.78 -4.8 11.78z"/>
      <path id="_5_71" class="fil4" d="M569.22 425.83c0.22,0 0.33,0.12 0.33,0.36l0 24.51c0,0.24 -0.11,0.36 -0.33,0.36l-2.29 0c-0.17,0 -0.31,-0.07 -0.43,-0.22l-12.55 -20.91 0 20.77c0,0.24 -0.11,0.36 -0.33,0.36l-1.85 0c-0.24,0 -0.36,-0.12 -0.36,-0.36l0 -24.51c0,-0.24 0.12,-0.36 0.36,-0.36l2.33 0c0.19,0 0.32,0.08 0.4,0.25l12.51 20.91 0 -20.8c0,-0.24 0.12,-0.36 0.36,-0.36l1.85 0z"/>
      <path id="_6_72" class="fil4" d="M596.17 448.08c-1.24,1.16 -2.64,2.01 -4.2,2.54 -1.56,0.54 -3.18,0.8 -4.86,0.8 -1.91,0 -3.66,-0.31 -5.25,-0.94 -1.59,-0.63 -2.94,-1.51 -4.07,-2.64 -1.13,-1.13 -2,-2.49 -2.62,-4.09 -0.62,-1.6 -0.93,-3.36 -0.93,-5.27 0,-2.16 0.37,-4.05 1.11,-5.67 0.74,-1.63 1.71,-2.98 2.91,-4.06 1.2,-1.08 2.58,-1.89 4.13,-2.43 1.55,-0.55 3.13,-0.82 4.72,-0.82 1.68,0 3.3,0.28 4.86,0.84 1.56,0.55 2.95,1.4 4.16,2.54 0.17,0.15 0.17,0.3 0,0.47l-1.23 1.17c-0.17,0.17 -0.34,0.17 -0.51,0 -0.37,-0.32 -0.78,-0.63 -1.24,-0.93 -0.46,-0.3 -0.99,-0.58 -1.58,-0.82 -0.59,-0.24 -1.26,-0.44 -1.98,-0.58 -0.73,-0.15 -1.55,-0.22 -2.48,-0.22 -1.52,0 -2.92,0.26 -4.19,0.76 -1.28,0.51 -2.37,1.23 -3.28,2.15 -0.91,0.92 -1.61,2.02 -2.11,3.31 -0.49,1.28 -0.74,2.71 -0.74,4.29 0,1.55 0.25,2.97 0.74,4.25 0.5,1.29 1.2,2.39 2.11,3.31 0.91,0.92 2,1.63 3.26,2.13 1.26,0.5 2.66,0.74 4.21,0.74 0.88,0 1.68,-0.07 2.4,-0.21 0.73,-0.15 1.39,-0.34 1.99,-0.59 0.59,-0.24 1.12,-0.51 1.6,-0.81 0.47,-0.31 0.89,-0.62 1.25,-0.93 0.07,-0.07 0.16,-0.1 0.27,-0.09 0.11,0.01 0.2,0.05 0.28,0.13l1.27 1.16c0.17,0.17 0.17,0.34 0,0.51z"/>
      <path id="_7_73" class="fil4" d="M603.18 448.73l11.27 0c0.25,0 0.37,0.12 0.37,0.37l0 1.63c0,0.22 -0.11,0.33 -0.33,0.33l-13.49 0c-0.24,0 -0.36,-0.12 -0.36,-0.36l0 -24.51c0,-0.24 0.12,-0.36 0.36,-0.36l13.13 0c0.24,0 0.36,0.12 0.36,0.36l0 1.64c0,0.21 -0.12,0.32 -0.36,0.32l-10.95 0 0 8.88 9.2 0c0.24,0 0.36,0.12 0.36,0.36l0 1.6c0,0.24 -0.12,0.36 -0.36,0.36l-9.2 0 0 9.38z"/>
     </g>
    </g>
    <path class="fil3" d="M355.18 288.47l-31.27 4.17 -1.76 -13.29c-0.45,-3.33 -0.49,-5.8 -0.14,-7.39 0.36,-1.59 1.2,-2.94 2.52,-4.03 1.31,-1.11 2.9,-1.78 4.74,-2.03 2.35,-0.31 4.38,0.12 6.09,1.3 1.72,1.17 2.95,3.1 3.71,5.79 0.62,-1.48 1.34,-2.71 2.18,-3.73 0.83,-1.01 2.37,-2.44 4.59,-4.27l5.59 -4.63 1.01 7.55 -6.2 5.47c-2.21,1.95 -3.59,3.26 -4.15,3.94 -0.56,0.68 -0.9,1.38 -1.04,2.07 -0.15,0.7 -0.12,1.78 0.07,3.23l0.17 1.28 13.06 -1.75 0.83 6.32zm-18.88 -3.9l-0.62 -4.67c-0.41,-3.04 -0.79,-4.9 -1.15,-5.63 -0.36,-0.72 -0.87,-1.25 -1.56,-1.59 -0.68,-0.34 -1.49,-0.45 -2.43,-0.33 -1.06,0.14 -1.86,0.53 -2.43,1.18 -0.57,0.65 -0.88,1.5 -0.91,2.55 -0.01,0.52 0.17,2.06 0.5,4.62l0.67 4.92 7.93 -1.05z"/>
    <polygon id="_1_74" class="fil3" points="352.23,256.71 320.68,256.28 321.01,232.89 326.35,232.97 326.11,249.98 333.1,250.08 333.33,234.25 338.64,234.32 338.42,250.15 347,250.27 347.25,232.65 352.56,232.73 "/>
    <path id="_2_75" class="fil3" d="M345.13 210.38l-5.18 -1.17 3.03 -13.4 12.26 2.78c0.96,1.59 1.64,3.72 2.04,6.41 0.39,2.68 0.31,5.29 -0.26,7.83 -0.73,3.22 -2.05,5.87 -3.94,7.96 -1.89,2.08 -4.22,3.44 -7,4.07 -2.78,0.64 -5.65,0.62 -8.61,-0.04 -3.2,-0.73 -5.9,-2.05 -8.08,-3.95 -2.19,-1.91 -3.65,-4.31 -4.4,-7.2 -0.57,-2.21 -0.52,-4.78 0.14,-7.7 0.86,-3.83 2.35,-6.64 4.43,-8.42 2.08,-1.78 4.62,-2.67 7.58,-2.64l-0.25 6.43c-1.6,0.09 -2.98,0.64 -4.12,1.64 -1.16,1 -1.92,2.38 -2.33,4.18 -0.61,2.72 -0.25,5.07 1.11,7.06 1.36,2 3.74,3.37 7.12,4.14 3.65,0.82 6.57,0.64 8.77,-0.57 2.19,-1.21 3.58,-3.13 4.17,-5.77 0.3,-1.29 0.35,-2.66 0.13,-4.08 -0.22,-1.43 -0.58,-2.69 -1.1,-3.79l-3.9 -0.89 -1.61 7.12z"/>
    <polygon id="_3_76" class="fil3" points="362.14,194.44 332.16,184.61 334.14,178.56 364.14,188.38 "/>
    <path id="_4_77" class="fil3" d="M355.79 179.29l2.29 -5.8c2.03,0.62 3.74,0.64 5.12,0.07 1.39,-0.57 2.53,-1.71 3.42,-3.43 0.93,-1.83 1.25,-3.4 0.95,-4.73 -0.3,-1.32 -0.96,-2.25 -1.99,-2.78 -0.67,-0.33 -1.34,-0.43 -2,-0.28 -0.67,0.14 -1.42,0.62 -2.27,1.41 -0.56,0.55 -1.75,1.86 -3.55,3.92 -2.31,2.65 -4.34,4.31 -6.06,4.97 -2.44,0.93 -4.76,0.82 -6.98,-0.31 -1.43,-0.74 -2.56,-1.83 -3.38,-3.28 -0.84,-1.45 -1.18,-3.11 -1.05,-4.97 0.13,-1.86 0.75,-3.86 1.85,-6.03 1.82,-3.52 3.96,-5.77 6.4,-6.76 2.47,-0.99 5,-0.87 7.63,0.37l-2.66 5.8c-1.56,-0.51 -2.87,-0.51 -3.92,-0.04 -1.03,0.46 -1.96,1.5 -2.78,3.1 -0.85,1.65 -1.17,3.11 -0.97,4.39 0.13,0.82 0.55,1.43 1.28,1.8 0.67,0.33 1.38,0.36 2.14,0.03 0.96,-0.41 2.48,-1.83 4.54,-4.25 2.07,-2.43 3.8,-4.12 5.17,-5.08 1.38,-0.97 2.86,-1.51 4.45,-1.64 1.58,-0.12 3.26,0.27 5.04,1.18 1.62,0.81 2.88,2.04 3.84,3.65 0.93,1.62 1.34,3.42 1.18,5.4 -0.15,1.99 -0.85,4.19 -2.11,6.64 -1.83,3.55 -4.04,5.85 -6.65,6.92 -2.62,1.06 -5.6,0.97 -8.93,-0.27z"/>
    <polygon id="_5_78" class="fil3" points="383.76,150.55 362.47,135.24 357,142.84 352.66,139.72 367.32,119.37 371.65,122.49 366.2,130.07 387.48,145.39 "/>
    <polygon id="_6_79" class="fil3" points="395.42,134.56 372.72,112.67 388.96,95.83 392.81,99.53 380.99,111.78 386.01,116.64 397.02,105.25 400.84,108.93 389.84,120.33 396.02,126.3 408.26,113.61 412.1,117.3 "/>
    <path id="_7_80" class="fil3" d="M415.89 113.73l-19.44 -24.87 10.56 -8.26c2.66,-2.08 4.77,-3.36 6.33,-3.86 1.55,-0.5 3.13,-0.45 4.75,0.12 1.62,0.58 3,1.59 4.15,3.07 1.46,1.86 2.12,3.84 1.97,5.91 -0.15,2.07 -1.2,4.12 -3.12,6.14 1.57,-0.21 3.01,-0.22 4.32,-0.01 1.29,0.21 3.3,0.81 6.01,1.8l6.83 2.48 -6 4.69 -7.86 -2.57c-2.81,-0.93 -4.64,-1.46 -5.51,-1.59 -0.87,-0.13 -1.64,-0.08 -2.32,0.16 -0.67,0.22 -1.59,0.78 -2.74,1.68l-1.03 0.8 8.12 10.39 -5.02 3.92zm-6.19 -18.28l3.71 -2.9c2.41,-1.89 3.83,-3.15 4.27,-3.84 0.45,-0.67 0.64,-1.39 0.59,-2.15 -0.05,-0.76 -0.37,-1.51 -0.95,-2.26 -0.66,-0.84 -1.41,-1.34 -2.26,-1.5 -0.85,-0.17 -1.73,0 -2.65,0.5 -0.45,0.26 -1.7,1.19 -3.73,2.78l-3.92 3.07 4.94 6.3z"/>
    <polygon id="_8_81" class="fil3" points="441.87,94.82 427.14,66.88 447.85,55.96 450.34,60.68 435.26,68.63 438.53,74.82 452.55,67.43 455.03,72.13 441.02,79.54 445.03,87.13 460.63,78.9 463.12,83.61 "/>
    <path id="_9_82" class="fil3" d="M457.72 51.77l11 -3.77c2.49,-0.85 4.44,-1.3 5.88,-1.37 1.92,-0.09 3.73,0.32 5.43,1.21 1.7,0.88 3.21,2.17 4.51,3.86 1.3,1.68 2.43,3.92 3.39,6.72 0.85,2.45 1.26,4.67 1.25,6.65 0,2.43 -0.46,4.55 -1.38,6.37 -0.7,1.37 -1.84,2.65 -3.42,3.82 -1.19,0.88 -2.89,1.71 -5.12,2.47l-11.34 3.88 -10.2 -29.84zm7.74 2.98l6.76 19.77 4.51 -1.54c1.68,-0.58 2.86,-1.09 3.54,-1.53 0.89,-0.58 1.56,-1.27 2.01,-2.08 0.45,-0.8 0.64,-1.94 0.59,-3.42 -0.05,-1.47 -0.47,-3.36 -1.26,-5.67 -0.79,-2.31 -1.61,-4.01 -2.43,-5.11 -0.82,-1.09 -1.72,-1.85 -2.7,-2.31 -0.97,-0.43 -2.06,-0.58 -3.27,-0.44 -0.9,0.1 -2.59,0.57 -5.04,1.41l-2.71 0.92z"/>
    <polygon id="_10_83" class="fil3" points="517.92,69.37 516.85,56.13 503.86,38.84 511.3,38.24 519.71,50.09 525.97,37.05 533.28,36.46 523.19,55.66 524.24,68.86 "/>
    <path id="_11_84" class="fil3" d="M539.05 52.73c0.27,-3.2 0.97,-5.85 2.11,-7.95 0.84,-1.54 1.94,-2.89 3.28,-4.06 1.33,-1.18 2.77,-2 4.29,-2.5 2.03,-0.67 4.32,-0.9 6.88,-0.68 4.64,0.38 8.22,2.12 10.76,5.22 2.54,3.1 3.61,7.21 3.18,12.32 -0.41,5.09 -2.11,8.94 -5.12,11.57 -2.99,2.65 -6.79,3.77 -11.41,3.39 -4.68,-0.38 -8.27,-2.11 -10.8,-5.19 -2.52,-3.08 -3.57,-7.12 -3.17,-12.12zm6.56 0.32c-0.29,3.56 0.31,6.33 1.8,8.3 1.5,1.97 3.5,3.06 6.03,3.26 2.53,0.21 4.68,-0.52 6.46,-2.21 1.77,-1.69 2.81,-4.36 3.11,-8 0.3,-3.61 -0.28,-6.36 -1.71,-8.26 -1.44,-1.9 -3.46,-2.96 -6.08,-3.18 -2.61,-0.21 -4.79,0.51 -6.54,2.17 -1.74,1.67 -2.77,4.3 -3.07,7.92z"/>
    <path id="_12_85" class="fil3" d="M591.15 64.56l1.59 -5.08 13.1 4.11 -3.75 12c-1.66,0.83 -3.85,1.34 -6.55,1.52 -2.72,0.18 -5.31,-0.12 -7.8,-0.89 -3.15,-0.99 -5.68,-2.51 -7.61,-4.57 -1.93,-2.05 -3.09,-4.48 -3.5,-7.32 -0.42,-2.82 -0.16,-5.68 0.73,-8.57 1,-3.14 2.53,-5.72 4.6,-7.75 2.08,-2.02 4.59,-3.29 7.53,-3.8 2.24,-0.39 4.8,-0.13 7.67,0.76 3.75,1.17 6.42,2.87 8.03,5.09 1.62,2.23 2.29,4.82 2.02,7.78l-6.39 -0.77c0.04,-1.61 -0.39,-3.03 -1.3,-4.25 -0.9,-1.22 -2.22,-2.11 -3.98,-2.65 -2.66,-0.83 -5.04,-0.65 -7.12,0.55 -2.11,1.19 -3.67,3.44 -4.71,6.76 -1.12,3.56 -1.16,6.49 -0.13,8.78 1.03,2.29 2.82,3.83 5.4,4.63 1.28,0.41 2.64,0.56 4.07,0.46 1.43,-0.11 2.73,-0.36 3.86,-0.79l1.2 -3.83 -6.96 -2.17z"/>
    <path id="_13_86" class="fil3" d="M631.94 93.12l-6.31 -2.87 0.47 -7.67 -11.47 -5.23 -5.35 5.44 -6.14 -2.8 24.25 -23.6 6.14 2.79 -1.59 33.94zm-5.49 -16.22l0.89 -12.46 -8.72 8.89 7.83 3.57z"/>
    <polygon id="_14_87" class="fil3" points="649.28,105.8 665.54,85.26 658.21,79.44 661.52,75.26 681.18,90.82 677.86,95 670.54,89.21 654.27,109.75 "/>
    <polygon id="_15_88" class="fil3" points="664.61,118.47 687.41,96.69 703.56,113.6 699.71,117.28 687.95,104.98 682.9,109.81 693.84,121.26 690,124.93 679.06,113.48 672.85,119.41 685.03,132.14 681.18,135.82 "/>
    <path id="_16_89" class="fil3" d="M700.09 163.95l-3.74 -5.82 4.54 -6.19 -6.82 -10.62 -7.43 1.69 -3.65 -5.69 33.18 -6.71 3.64 5.67 -19.72 27.67zm4.17 -16.6l7.5 -9.99 -12.15 2.75 4.65 7.24z"/>
    <path id="_17_90" class="fil3" d="M721.04 180.2l0.79 6.43c-3.53,0.58 -6.51,0.21 -8.94,-1.09 -2.44,-1.31 -4.36,-3.49 -5.78,-6.57 -1.74,-3.81 -1.88,-7.53 -0.41,-11.19 1.47,-3.64 4.47,-6.5 8.99,-8.57 4.77,-2.19 9.03,-2.66 12.82,-1.41 3.77,1.26 6.58,3.89 8.42,7.9 1.61,3.52 1.88,6.83 0.81,9.99 -0.63,1.86 -1.94,3.64 -3.93,5.35l-4.01 -5.1c1.33,-1.03 2.18,-2.27 2.55,-3.73 0.37,-1.47 0.2,-2.99 -0.51,-4.52 -0.97,-2.13 -2.53,-3.5 -4.66,-4.13 -2.13,-0.63 -4.9,-0.15 -8.32,1.42 -3.63,1.66 -5.91,3.5 -6.86,5.52 -0.93,2 -0.93,4.05 0.03,6.14 0.71,1.54 1.81,2.63 3.29,3.29 1.49,0.67 3.39,0.75 5.72,0.27z"/>
    <polygon id="_18_91" class="fil3" points="714.78,196.04 745.53,189 746.95,195.21 734.85,197.98 737.63,210.15 749.74,207.37 751.15,213.59 720.4,220.61 718.98,214.41 732.43,211.33 729.65,199.17 716.2,202.25 "/>
    <polygon id="_19_92" class="fil3" points="721.47,226.96 752.93,224.42 754.81,247.74 749.48,248.17 748.12,231.2 741.14,231.76 742.42,247.56 737.12,247.98 735.85,232.19 727.28,232.89 728.7,250.46 723.4,250.88 "/>
    <path id="_20_93" class="fil3" d="M723.46 256.53l31.42 2.59 -1.1 13.35c-0.28,3.36 -0.76,5.77 -1.45,7.24 -0.69,1.49 -1.8,2.63 -3.31,3.42 -1.52,0.79 -3.2,1.12 -5.07,0.96 -2.35,-0.2 -4.24,-1.04 -5.67,-2.56 -1.42,-1.52 -2.21,-3.66 -2.39,-6.45 -0.91,1.3 -1.88,2.36 -2.92,3.18 -1.02,0.81 -2.83,1.88 -5.39,3.19l-6.45 3.33 0.62 -7.59 7.22 -4.02c2.58,-1.43 4.21,-2.42 4.9,-2.97 0.67,-0.54 1.17,-1.14 1.46,-1.79 0.29,-0.65 0.5,-1.71 0.62,-3.17l0.1 -1.28 -13.12 -1.09 0.53 -6.34zm17.61 7.84l-0.39 4.69c-0.25,3.05 -0.28,4.95 -0.09,5.74 0.21,0.77 0.6,1.41 1.18,1.88 0.6,0.49 1.37,0.76 2.32,0.84 1.05,0.09 1.93,-0.12 2.62,-0.64 0.7,-0.5 1.18,-1.27 1.44,-2.28 0.11,-0.51 0.27,-2.05 0.49,-4.62l0.4 -4.95 -7.97 -0.66z"/>
   </g>
  </g>
 </g>
</svg>
